# FreeCAD v0.20 build1 Arch module
# http://www.freecadweb.org
mtllib Sphere_z.mtl
o Mesh
usemtl color_cccccc
v 0.0 -0.0 15.0
v 0.0 -0.0 25.0
v 1.670021 -0.0 15.287142
v 3.206445 -0.0 16.163502
v 4.306107 -0.0 17.458851
v 4.916941 -0.0 19.092426
v 4.932918 -0.0 20.816286
v 4.356326 -0.0 22.454063
v 3.177427 -0.0 23.860563
v 1.664098 -0.0 24.714952
v 0.813102 -1.405464 15.27099
v 2.493276 -1.372623 15.889102
v 3.782726 -1.340967 17.017921
v 4.606593 -1.312058 18.565495
v 4.824073 -1.284386 20.280479
v 4.419854 -1.258112 21.970291
v 3.37517 -1.233754 23.476503
v 1.939111 -1.209212 24.447206
v 0.30551 -1.185086 24.84791
v 0.813102 1.405464 15.27099
v 2.493276 1.372623 15.889102
v 3.782726 1.340967 17.017921
v 4.606593 1.312058 18.565495
v 4.824073 1.284386 20.280479
v 4.419854 1.258112 21.970291
v 3.37517 1.233754 23.476503
v 1.939111 1.209212 24.447206
v 0.30551 1.185086 24.84791
v -1.378218 0.959701 24.709511
v -1.204532 -0.921964 24.764355
v -0.979058 1.468418 15.321838
v -0.820034 -1.38704 15.266749
v -1.770697 0.018474 15.324074
v 1.465026 -2.860505 16.169699
v 4.129131 -2.778676 19.521212
v 3.977563 -2.754904 21.260752
v 3.090884 -2.70817 22.848202
v 1.73415 -2.636445 23.878387
v -0.676726 -2.531436 24.258389
v -0.013614 2.901455 15.927977
v -2.616036 -0.117322 24.259411
v -0.161914 -2.854789 15.898297
v 2.754637 2.82909 16.932716
v 3.796963 2.804321 18.351105
v 4.174881 2.751331 20.023285
v 3.865128 2.677041 21.701246
v 2.377707 2.552447 23.582111
v 0.808944 2.547749 24.22547
v -0.891337 2.34113 24.327196
v 2.919581 -2.835682 17.095701
v 3.724176 -2.807172 18.197142
v 1.462164 2.878042 16.181761
v -1.672925 2.746463 16.171389
v -2.232817 -1.991587 24.00601
v -1.929615 -2.525925 16.140429
v -2.849831 -1.203673 16.071943
v -2.389512 1.933564 23.943546
v -2.514145 1.324273 15.885954
v 3.161343 -3.859818 20.328197
v -3.660731 0.909804 23.281967
v -0.797109 4.007136 17.117729
v -1.69984 -3.363566 23.285873
v -3.68853 -1.18168 23.162022
v 0.352852 -3.759452 23.277502
v -1.124184 -3.775802 16.921116
v -1.748878 3.291542 23.332743
v 2.322294 3.901055 22.094927
v 2.974298 3.981886 19.453981
v 2.884094 4.002103 20.815584
v 0.865639 3.93171 22.965185
v 1.634403 -4.035017 17.540861
v -0.428926 3.671215 23.367224
v 2.447881 -3.876122 21.995886
v 0.298212 -3.997178 17.01108
v 2.099451 4.043934 17.941139
v -3.317309 -2.61967 22.670729
v -2.769279 -3.338226 17.512564
v -3.282241 2.722572 22.610458
v -3.585688 0.063416 16.515919
v 2.493647 -4.081252 18.542225
v 0.692304 4.119893 17.252785
v -2.519289 3.5723 17.572685
v -3.673838 -2.047135 17.295902
v -3.389015 2.226223 17.074507
v -4.437922 1.555737 21.698389
v -2.337871 4.047924 21.77445
v -1.718222 -4.455119 18.516886
v -1.529402 4.531483 18.541716
v 1.493689 4.724403 19.329996
v 1.72099 -4.643371 20.690872
v 0.975779 -4.788288 18.941624
v -0.269773 -4.554642 22.045107
v -4.628607 -0.526722 21.816195
v 0.9032 4.730195 21.345171
v -3.640937 3.260231 21.055685
v -4.328104 -2.018252 21.481274
v -3.244477 -3.729346 19.2481
v -0.333864 4.637448 21.839188
v -0.022399 4.827133 18.696815
v -1.35262 4.392829 21.968113
v -3.052194 3.891661 19.265776
v -4.176276 -2.514045 18.887213
v -3.984371 2.725232 18.696964
v -2.144209 -4.228589 21.587893
v -0.391653 -4.754234 18.502047
v -2.082623 -4.542738 20.161901
v -1.417482 4.793948 20.09384
v -0.176715 -4.990884 20.24464
v -4.459458 0.670971 17.840593
v -4.518509 2.139626 20.071253
v -4.533079 -0.986108 18.13485
v -4.987331 0.101576 20.340902
v -4.014296 -2.949181 20.43331
v -4.893929 -1.015797 20.132729
vn 0.16874001920223236 -0.09160361438989639 -0.9813947677612305
vn 0.4937288761138916 -0.08348382264375687 -0.8655993342399597
vn 0.341840922832489 -0.19786475598812103 -0.9186916351318359
vn 0.7596186399459839 -0.08443932235240936 -0.6448639631271362
vn 0.649307370185852 -0.19015108048915863 -0.7363712191581726
vn 0.933610200881958 -0.08063115179538727 -0.34909987449645996
vn 0.8684087991714478 -0.18808308243751526 -0.45879292488098145
vn 0.9967027902603149 -0.08061129599809647 -0.009237266145646572
vn 0.9757946729660034 -0.18229569494724274 -0.12080105394124985
vn 0.9402430057525635 -0.07980739325284958 0.33101943135261536
vn 0.9564625024795532 -0.17765338718891144 0.23155748844146729
vn 0.7641221284866333 -0.07690330594778061 0.6404711604118347
vn 0.8075864315032959 -0.17569594085216522 0.5629698634147644
vn 0.4900287687778473 -0.0807369127869606 0.8679592609405518
vn 0.5502393841743469 -0.16652047634124756 0.8182344436645508
vn 0.16825543344020844 -0.082685686647892 0.9822694659233093
vn 0.2329576462507248 -0.15943431854248047 0.9593286514282227
vn 0.16874001920223236 0.09160361438989639 -0.9813947677612305
vn 0.4937288761138916 0.08348382264375687 -0.8655993342399597
vn 0.341840922832489 0.19786475598812103 -0.9186916351318359
vn 0.7596186399459839 0.08443930745124817 -0.6448639631271362
vn 0.649307370185852 0.19015108048915863 -0.7363712191581726
vn 0.933610200881958 0.08063112944364548 -0.34909987449645996
vn 0.8684087991714478 0.18808308243751526 -0.45879292488098145
vn 0.9967027902603149 0.08061129599809647 -0.009237266145646572
vn 0.9757946729660034 0.18229569494724274 -0.12080105394124985
vn 0.9402430057525635 0.07980740070343018 0.33101943135261536
vn 0.9564625024795532 0.17765338718891144 0.23155748844146729
vn 0.7641221284866333 0.07690330594778061 0.6404711604118347
vn 0.8075864315032959 0.17569594085216522 0.5629698634147644
vn 0.4900287687778473 0.08073688298463821 0.8679592609405518
vn 0.5502393841743469 0.16652047634124756 0.8182344436645508
vn 0.16825543344020844 0.082685686647892 0.9822694659233093
vn 0.2329576462507248 0.15943431854248047 0.9593286514282227
vn -0.10119450837373734 0.15226130187511444 0.9831460118293762
vn -0.08019869029521942 -0.1471957564353943 0.9858506917953491
vn -0.020733274519443512 0.20083589851856232 -0.979405403137207
vn -0.19945865869522095 0.010148443281650543 0.9798536896705627
vn 0.00041678061825223267 -0.18909238278865814 -0.9819591641426086
vn -0.18025179207324982 -0.08194102346897125 -0.9802014827728271
vn -0.1782347708940506 0.09580261260271072 -0.9793131351470947
vn 0.3249754309654236 -0.3872952461242676 -0.8627822995185852
vn 0.9214966297149658 -0.37223124504089355 -0.11085071414709091
vn 0.9016668200492859 -0.3714177906513214 0.22146251797676086
vn 0.8866838216781616 -0.45477917790412903 0.08347250521183014
vn 0.7594122290611267 -0.37345021963119507 0.5327551960945129
vn 0.7776036858558655 -0.44183412194252014 0.44734227657318115
vn 0.5134628415107727 -0.38031205534935 0.769232451915741
vn 0.5357697606086731 -0.41633597016334534 0.7345849871635437
vn 0.21415232121944427 -0.3880212604999542 0.8964253067970276
vn -0.10947411507368088 -0.3305901885032654 0.9374036192893982
vn -0.012119115330278873 0.39644625782966614 -0.9179779291152954
vn -0.33877161145210266 -0.0038472162559628487 0.9408608078956604
vn -0.0020832852460443974 -0.3960345685482025 -0.9182332158088684
vn 0.14337678253650665 -0.47277286648750305 -0.8694417476654053
vn 0.6134301424026489 0.3842920958995819 -0.6899442672729492
vn 0.818523645401001 0.3825148642063141 -0.4286040663719177
vn 0.7169875502586365 0.46563756465911865 -0.5187585949897766
vn 0.9159022569656372 0.38605809211730957 -0.10991817712783813
vn 0.8748498558998108 0.4482862949371338 -0.18351328372955322
vn 0.8937085866928101 0.3910813331604004 0.21986456215381622
vn 0.8868557214736938 0.4244736433029175 0.18250761926174164
vn 0.752170979976654 0.3941865563392639 0.5280680656433105
vn 0.5240119099617004 0.33360451459884644 0.7836578488349915
vn 0.21958743035793304 0.33706507086753845 0.9155153632164001
vn 0.341946542263031 0.4273570477962494 0.8369220495223999
vn -0.11832775920629501 0.3033730983734131 0.9454963803291321
vn 0.004117764998227358 0.4142259657382965 0.9101647138595581
vn 0.6121175289154053 -0.3892931044101715 -0.6883045434951782
vn 0.47944381833076477 -0.4709809422492981 -0.7404798865318298
vn 0.8200628757476807 -0.37818360328674316 -0.42950439453125
vn 0.7276964783668518 -0.44727790355682373 -0.5200002193450928
vn 0.85915207862854 -0.4446919560432434 -0.25319331884384155
vn 0.3246428966522217 0.3898841142654419 -0.8617408871650696
vn 0.458629846572876 0.461731880903244 -0.7592512369155884
vn 0.15693947672843933 0.46853509545326233 -0.8693934679031372
vn 0.11753949522972107 -0.4690278172492981 0.8753269910812378
vn -0.17104829847812653 0.4793340265750885 -0.8608027100563049
vn -0.2720569670200348 -0.3686485290527344 0.8888662457466125
vn -0.4320214092731476 -0.20700927078723907 0.8777839541435242
vn -0.2042514681816101 -0.46276000142097473 -0.8626323342323303
vn -0.37479692697525024 -0.30616331100463867 -0.875095009803772
vn -0.3768177628517151 -0.2181561142206192 -0.9002312421798706
vn -0.32155895233154297 0.356144517660141 0.8773602247238159
vn 0.678063690662384 0.4674655497074127 0.5671910047531128
vn -0.3543454706668854 0.19205425679683685 -0.915179967880249
vn -0.3503349721431732 0.3791152834892273 -0.8564677238464355
vn -0.47396185994148254 0.18494123220443726 0.8609046936035156
vn 0.7703887224197388 -0.6330555081367493 0.07577583938837051
vn -0.5674013495445251 0.18620683252811432 0.8021114468574524
vn -0.1688738465309143 0.6640672087669373 -0.7283518314361572
vn -0.31262877583503723 -0.5338382124900818 0.7856717705726624
vn -0.5792049765586853 -0.22438181936740875 0.7836928367614746
vn 0.10426630079746246 -0.5658674836158752 0.817876935005188
vn -0.21815215051174164 -0.6142553091049194 -0.7583534717559814
vn -0.341422975063324 0.5147832632064819 0.7864022850990295
vn 0.6082037091255188 0.5991600751876831 0.5206682682037354
vn 0.7410991787910461 0.6551660299301147 -0.1467292159795761
vn 0.7367198467254639 0.6557502150535583 0.16503192484378815
vn 0.6366241574287415 0.6948779821395874 0.33444634079933167
vn 0.7068419456481934 0.7064374685287476 0.036338068544864655
vn 0.290639728307724 0.6376972794532776 0.7133517265319824
vn 0.38095059990882874 0.6919379830360413 0.6132686138153076
vn 0.40772557258605957 -0.667980432510376 -0.6225448250770569
vn -0.023481221869587898 0.5904255509376526 0.806750476360321
vn -0.197623610496521 0.6179367899894714 0.7609856128692627
vn 0.09473919123411179 0.6681450009346008 0.7379747629165649
vn 0.6588339805603027 -0.6451190114021301 0.3869873583316803
vn 0.6504141092300415 -0.7094691395759583 0.2713208794593811
vn 0.42352718114852905 -0.6744764447212219 0.6047365069389343
vn 0.12024979293346405 -0.6674247980117798 -0.7349041104316711
vn -0.0661088302731514 -0.7097731232643127 -0.7013213634490967
vn 0.2367413341999054 -0.7232363820075989 -0.6487547159194946
vn 0.5981701612472534 0.6776649951934814 -0.4277411103248596
vn 0.6078378558158875 0.7259652018547058 -0.3217260241508484
vn 0.3767920732498169 0.7034551501274109 -0.6026428937911987
vn -0.6992917656898499 -0.031660690903663635 0.714134931564331
vn -0.12870323657989502 -0.6825474500656128 0.719419538974762
vn -0.6149131655693054 -0.39243632555007935 0.6840142011642456
vn -0.505351185798645 -0.5467352867126465 0.6676082015037537
vn 0.3285132050514221 -0.7268122434616089 0.6031774878501892
vn -0.40362435579299927 -0.6574949622154236 -0.6362292170524597
vn -0.5142191052436829 0.5416755080223083 0.6649558544158936
vn -0.5491650700569153 -0.026244135573506355 -0.8353017568588257
vn -0.5474447011947632 0.0478176586329937 -0.8354746103286743
vn 0.5094562768936157 -0.720527708530426 -0.47041916847229004
vn 0.5948421359062195 -0.6873819231987 -0.4167359471321106
vn 0.1328112930059433 0.6932488083839417 -0.7083552479743958
vn 0.3335326910018921 0.7257245182991028 -0.6017307043075562
vn 0.005935194902122021 0.7344468832015991 -0.6786401867866516
vn -0.6489323973655701 0.379723459482193 0.6593155264854431
vn 0.6792692542076111 -0.7081909775733948 -0.1925067901611328
vn -0.34214186668395996 0.7044706344604492 -0.6218199133872986
vn -0.5770068168640137 -0.4372936189174652 -0.6898097395896912
vn -0.5684203505516052 -0.5069826245307922 -0.6479714512825012
vn -0.5188647508621216 0.4524727463722229 -0.7252914905548096
vn -0.5114191770553589 0.5688239336013794 -0.6441194415092468
vn 0.6722218990325928 -0.722466766834259 -0.16173899173736572
vn -0.7733567953109741 0.3558333218097687 0.524692177772522
vn -0.5020784735679626 0.6881533265113831 0.5237959623336792
vn -0.3823414742946625 -0.7903153896331787 -0.4787657558917999
vn -0.33091866970062256 0.8175790309906006 -0.4712296426296234
vn 0.4517460763454437 0.8630892038345337 -0.2258370965719223
vn 0.5073903799057007 -0.8360128402709961 0.20889614522457123
vn 0.32850077748298645 -0.8876081705093384 -0.3228605091571808
vn 0.4643830955028534 -0.8833120465278625 -0.06409500539302826
vn 0.2244294285774231 -0.8665638566017151 0.44575613737106323
vn 0.22924141585826874 -0.8894994854927063 0.39527085423469543
vn -0.15077319741249084 -0.7942160964012146 0.5886325240135193
vn -0.8244906067848206 -0.02147062122821808 0.5654681324958801
vn -0.8746475577354431 0.10683749616146088 0.47283974289894104
vn 0.27509331703186035 0.8598127961158752 0.43016931414604187
vn 0.2203517109155655 0.9104729294776917 -0.3499773442745209
vn -0.7402753233909607 -0.2056332230567932 -0.640083909034729
vn -0.6229609251022339 0.6836740970611572 0.3801438510417938
vn -0.7918329834938049 -0.3703356683254242 0.48564612865448
vn -0.8459519147872925 -0.27326205372810364 0.45792269706726074
vn -0.527893602848053 -0.7860346436500549 -0.3216799199581146
vn 0.10953707247972488 0.8905577063560486 0.44148460030555725
vn -0.00417545810341835 0.8453096747398376 0.5342603921890259
vn -0.686015248298645 0.23979707062244415 -0.6869354844093323
vn 0.44712841510772705 0.8943204879760742 0.016342682763934135
vn 0.13994891941547394 -0.8980153799057007 -0.4171122908592224
vn 0.3910592794418335 0.8880167007446289 0.24186591804027557
vn -0.026730094105005264 0.8924624919891357 -0.4503289759159088
vn 0.2065279632806778 0.9152125716209412 -0.34602347016334534
vn -0.13604100048542023 0.9049500823020935 -0.4031849801540375
vn 0.3997473418712616 -0.9117132425308228 -0.09476832300424576
vn -0.24151566624641418 0.7882382273674011 0.5659952759742737
vn -0.3716261386871338 0.7722408771514893 0.5153038501739502
vn -0.1357337087392807 0.8411703705787659 0.5234584808349609
vn -0.4892508387565613 0.8159816265106201 -0.30790844559669495
vn -0.7200210094451904 -0.5707097053527832 -0.3947913348674774
vn -0.697564423084259 -0.6339830160140991 -0.3338703513145447
vn -0.7880344390869141 0.502549409866333 0.3555923104286194
vn -0.6504532694816589 0.682434618473053 -0.3334569036960602
vn -0.676351010799408 0.5967866778373718 -0.4317348897457123
vn -0.26427412033081055 -0.8296282291412354 0.49180904030799866
vn -0.5112390518188477 -0.7042728066444397 0.49257946014404297
vn -0.10399448871612549 -0.8665573000907898 -0.4881225824356079
vn -0.20159240067005157 -0.8719220161437988 -0.4462203085422516
vn 0.10906796157360077 -0.9057859182357788 -0.409458190202713
vn -0.5570141673088074 0.8235413432121277 0.10730727761983871
vn -0.48320290446281433 -0.8620441555976868 -0.1529536098241806
vn -0.4324924349784851 0.8936262726783752 -0.11992667615413666
vn -0.1752084344625473 0.9727492332458496 -0.15185855329036713
vn -0.517268717288971 0.8506115078926086 0.09430395811796188
vn 0.17892298102378845 -0.9838488698005676 0.005282883066684008
vn 0.019338838756084442 -0.9903981685638428 -0.1368846595287323
vn 0.12007400393486023 -0.963409423828125 0.23963429033756256
vn -0.7623243927955627 0.22595444321632385 -0.6064702868461609
vn -0.8313800096511841 0.3664320111274719 -0.41777369379997253
vn -0.8514444231987 0.47880351543426514 0.21398510038852692
vn 0.36771249771118164 0.9239822030067444 0.10509201139211655
vn -0.7927119135856628 -0.1819113790988922 -0.5818213224411011
vn -0.8451902270317078 -0.0568196140229702 -0.5314366817474365
vn -0.8426095843315125 -0.3831191062927246 -0.3784559667110443
vn -0.21883489191532135 -0.9508509039878845 0.21907487511634827
vn -0.9555341601371765 0.10312347114086151 0.27626073360443115
vn -0.9618417024612427 0.2389020472764969 0.13336536288261414
vn -0.773485541343689 0.633050799369812 -0.03109496645629406
vn 0.06131817027926445 0.9980040788650513 0.015099236741662025
vn 0.009525594301521778 0.9994016289710999 0.033251866698265076
vn -0.7763842344284058 -0.6232022643089294 -0.09405562281608582
vn -0.23248913884162903 -0.9518844485282898 0.1996617615222931
vn -0.35926660895347595 0.9099485874176025 0.20717386901378632
vn -0.7734302878379822 0.6331318020820618 -0.030817940831184387
vn -0.21986454725265503 -0.9699066281318665 -0.10459770262241364
vn -0.22355514764785767 -0.9694278240203857 -0.10115643590688705
vn -0.6590782403945923 -0.6868031024932861 0.3064594268798828
vn -0.6176754832267761 -0.7732000350952148 0.14366163313388824
vn -0.6241319179534912 -0.7743244171142578 0.10431182384490967
vn -0.7318297028541565 -0.6033587455749512 0.3168334662914276
vn -0.9458954334259033 -0.23968304693698883 0.21870963275432587
vn -0.9118638038635254 -0.4018276035785675 0.08389870077371597
vn -0.9086968898773193 -0.4168698787689209 -0.02212303690612316
vn -0.9236220121383667 0.3084608018398285 -0.22753964364528656
vn -0.9753249883651733 -0.11647026240825653 0.18755243718624115
vn -0.9666417241096497 0.20142875611782074 -0.15820908546447754
vn -0.9366246461868286 -0.30424627661705017 -0.17369107902050018
vn -0.03118341602385044 0.9936121702194214 0.1084546223282814
vn -0.9787319302558899 0.007076720707118511 -0.20502138137817383
vn -0.2027875781059265 0.9560801982879639 0.21163149178028107
vn -0.9827705025672913 -0.04894467070698738 -0.178231880068779
f 1//1 3//1 11//1 
f 3//2 4//2 12//2 
f 3//3 12//3 11//3 
f 4//4 5//4 13//4 
f 4//5 13//5 12//5 
f 5//6 6//6 14//6 
f 5//7 14//7 13//7 
f 6//8 7//8 15//8 
f 6//9 15//9 14//9 
f 7//10 8//10 16//10 
f 7//11 16//11 15//11 
f 8//12 9//12 17//12 
f 8//13 17//13 16//13 
f 9//14 10//14 18//14 
f 9//15 18//15 17//15 
f 10//16 2//16 19//16 
f 10//17 19//17 18//17 
f 3//18 1//18 20//18 
f 4//19 3//19 21//19 
f 3//20 20//20 21//20 
f 5//21 4//21 22//21 
f 4//22 21//22 22//22 
f 6//23 5//23 23//23 
f 5//24 22//24 23//24 
f 7//25 6//25 24//25 
f 6//26 23//26 24//26 
f 8//27 7//27 25//27 
f 7//28 24//28 25//28 
f 9//29 8//29 26//29 
f 8//30 25//30 26//30 
f 10//31 9//31 27//31 
f 9//32 26//32 27//32 
f 2//33 10//33 28//33 
f 10//34 27//34 28//34 
f 2//35 28//35 29//35 
f 19//36 2//36 30//36 
f 20//37 1//37 31//37 
f 2//38 29//38 30//38 
f 1//39 11//39 32//39 
f 1//40 32//40 33//40 
f 1//41 33//41 31//41 
f 11//42 12//42 34//42 
f 14//43 15//43 35//43 
f 15//44 16//44 36//44 
f 15//45 36//45 35//45 
f 16//46 17//46 37//46 
f 16//47 37//47 36//47 
f 17//48 18//48 38//48 
f 17//49 38//49 37//49 
f 18//50 19//50 38//50 
f 19//51 30//51 39//51 
f 20//52 31//52 40//52 
f 30//53 29//53 41//53 
f 32//54 11//54 42//54 
f 11//55 34//55 42//55 
f 22//56 21//56 43//56 
f 23//57 22//57 44//57 
f 22//58 43//58 44//58 
f 24//59 23//59 45//59 
f 23//60 44//60 45//60 
f 25//61 24//61 46//61 
f 24//62 45//62 46//62 
f 26//63 25//63 46//63 
f 27//64 26//64 47//64 
f 28//65 27//65 48//65 
f 27//66 47//66 48//66 
f 29//67 28//67 49//67 
f 28//68 48//68 49//68 
f 12//69 13//69 50//69 
f 12//70 50//70 34//70 
f 13//71 14//71 51//71 
f 50//72 13//72 51//72 
f 14//73 35//73 51//73 
f 21//74 20//74 52//74 
f 43//75 21//75 52//75 
f 20//76 40//76 52//76 
f 38//77 19//77 39//77 
f 40//78 31//78 53//78 
f 39//79 30//79 54//79 
f 30//80 41//80 54//80 
f 32//81 42//81 55//81 
f 32//82 55//82 56//82 
f 32//83 56//83 33//83 
f 29//84 49//84 57//84 
f 47//85 26//85 46//85 
f 31//86 33//86 58//86 
f 31//87 58//87 53//87 
f 29//88 57//88 41//88 
f 35//89 36//89 59//89 
f 41//90 57//90 60//90 
f 40//91 53//91 61//91 
f 39//92 54//92 62//92 
f 54//93 41//93 63//93 
f 38//94 39//94 64//94 
f 55//95 42//95 65//95 
f 57//96 49//96 66//96 
f 47//97 46//97 67//97 
f 45//98 44//98 68//98 
f 46//99 45//99 69//99 
f 67//100 46//100 69//100 
f 45//101 68//101 69//101 
f 48//102 47//102 70//102 
f 47//103 67//103 70//103 
f 34//104 50//104 71//104 
f 49//105 48//105 72//105 
f 66//106 49//106 72//106 
f 48//107 70//107 72//107 
f 36//108 37//108 73//108 
f 36//109 73//109 59//109 
f 37//110 38//110 73//110 
f 42//111 34//111 74//111 
f 65//112 42//112 74//112 
f 34//113 71//113 74//113 
f 44//114 43//114 75//114 
f 44//115 75//115 68//115 
f 43//116 52//116 75//116 
f 41//117 60//117 63//117 
f 39//118 62//118 64//118 
f 54//119 63//119 76//119 
f 54//120 76//120 62//120 
f 38//121 64//121 73//121 
f 55//122 65//122 77//122 
f 57//123 66//123 78//123 
f 33//124 56//124 79//124 
f 33//125 79//125 58//125 
f 71//126 50//126 80//126 
f 50//127 51//127 80//127 
f 52//128 40//128 81//128 
f 75//129 52//129 81//129 
f 40//130 61//130 81//130 
f 60//131 57//131 78//131 
f 51//132 35//132 80//132 
f 61//133 53//133 82//133 
f 56//134 55//134 83//134 
f 55//135 77//135 83//135 
f 53//136 58//136 84//136 
f 53//137 84//137 82//137 
f 35//138 59//138 80//138 
f 60//139 78//139 85//139 
f 78//140 66//140 86//140 
f 77//141 65//141 87//141 
f 61//142 82//142 88//142 
f 68//143 75//143 89//143 
f 59//144 73//144 90//144 
f 71//145 80//145 91//145 
f 80//146 59//146 90//146 
f 73//147 64//147 92//147 
f 73//148 92//148 90//148 
f 64//149 62//149 92//149 
f 63//150 60//150 93//150 
f 60//151 85//151 93//151 
f 70//152 67//152 94//152 
f 89//153 75//153 81//153 
f 79//154 56//154 83//154 
f 78//155 86//155 95//155 
f 76//156 63//156 96//156 
f 63//157 93//157 96//157 
f 77//158 87//158 97//158 
f 70//159 94//159 98//159 
f 70//160 98//160 72//160 
f 58//161 79//161 84//161 
f 68//162 89//162 69//162 
f 71//163 91//163 74//163 
f 67//164 69//164 94//164 
f 81//165 61//165 99//165 
f 89//166 81//166 99//166 
f 61//167 88//167 99//167 
f 80//168 90//168 91//168 
f 66//169 72//169 100//169 
f 86//170 66//170 100//170 
f 72//171 98//171 100//171 
f 88//172 82//172 101//172 
f 83//173 77//173 102//173 
f 77//174 97//174 102//174 
f 78//175 95//175 85//175 
f 101//176 82//176 103//176 
f 82//177 84//177 103//177 
f 92//178 62//178 104//178 
f 62//179 76//179 104//179 
f 65//180 74//180 105//180 
f 87//181 65//181 105//181 
f 74//182 91//182 105//182 
f 95//183 86//183 101//183 
f 97//184 87//184 106//184 
f 88//185 101//185 107//185 
f 99//186 88//186 107//186 
f 101//187 86//187 107//187 
f 91//188 90//188 108//188 
f 105//189 91//189 108//189 
f 90//190 92//190 108//190 
f 84//191 79//191 109//191 
f 84//192 109//192 103//192 
f 85//193 95//193 110//193 
f 69//194 89//194 94//194 
f 79//195 83//195 111//195 
f 109//196 79//196 111//196 
f 83//197 102//197 111//197 
f 92//198 104//198 108//198 
f 93//199 85//199 112//199 
f 85//200 110//200 112//200 
f 95//201 101//201 110//201 
f 94//202 89//202 99//202 
f 94//203 99//203 107//203 
f 102//204 97//204 113//204 
f 108//205 104//205 106//205 
f 107//206 86//206 100//206 
f 110//207 101//207 103//207 
f 87//208 105//208 108//208 
f 87//209 108//209 106//209 
f 104//210 76//210 113//210 
f 104//211 113//211 106//211 
f 113//212 97//212 106//212 
f 113//213 76//213 96//213 
f 96//214 93//214 114//214 
f 96//215 114//215 113//215 
f 102//216 113//216 114//216 
f 103//217 109//217 110//217 
f 93//218 112//218 114//218 
f 112//219 110//219 109//219 
f 102//220 114//220 111//220 
f 98//221 94//221 107//221 
f 112//222 109//222 111//222 
f 100//223 98//223 107//223 
f 114//224 112//224 111//224 
