# FreeCAD v0.20 build1 Arch module
# http://www.freecadweb.org
mtllib Sphere_x.mtl
o Mesh002
usemtl color_cccccc
v 20.0 -0.0 -5.0
v 20.0 -0.0 5.0
v 21.670021 -0.0 -4.712858
v 23.206444 -0.0 -3.836497
v 24.306107 -0.0 -2.54115
v 24.916941 -0.0 -0.907574
v 24.932919 -0.0 0.816285
v 24.356325 -0.0 2.454063
v 23.177427 -0.0 3.860564
v 21.664097 -0.0 4.714952
v 20.813103 -1.405464 -4.72901
v 22.493277 -1.372623 -4.110898
v 23.782726 -1.340967 -2.982078
v 24.606592 -1.312058 -1.434506
v 24.824074 -1.284386 0.280479
v 24.419853 -1.258112 1.970291
v 23.37517 -1.233754 3.476504
v 21.939112 -1.209212 4.447207
v 20.30551 -1.185086 4.84791
v 20.813103 1.405464 -4.72901
v 22.493277 1.372623 -4.110898
v 23.782726 1.340967 -2.982078
v 24.606592 1.312058 -1.434506
v 24.824074 1.284386 0.280479
v 24.419853 1.258112 1.970291
v 23.37517 1.233754 3.476504
v 21.939112 1.209212 4.447207
v 20.30551 1.185086 4.84791
v 18.621782 0.959701 4.709511
v 18.795467 -0.921964 4.764356
v 19.020943 1.468418 -4.678161
v 19.179966 -1.38704 -4.733251
v 18.229303 0.018474 -4.675927
v 21.465027 -2.860505 -3.830302
v 24.129131 -2.778676 -0.478788
v 23.977564 -2.754904 1.260752
v 23.090883 -2.70817 2.848201
v 21.73415 -2.636445 3.878386
v 19.323275 -2.531436 4.258389
v 19.986385 2.901455 -4.072023
v 17.383963 -0.117322 4.259412
v 19.838085 -2.854789 -4.101702
v 22.754637 2.82909 -3.067283
v 23.796963 2.804321 -1.648895
v 24.174881 2.751331 0.023285
v 23.865128 2.677041 1.701246
v 22.377707 2.552447 3.582112
v 20.808945 2.547749 4.225469
v 19.108664 2.34113 4.327196
v 22.91958 -2.835682 -2.904299
v 23.724176 -2.807172 -1.802858
v 21.462164 2.878042 -3.818239
v 18.327074 2.746463 -3.828611
v 17.767183 -1.991587 4.00601
v 18.070385 -2.525925 -3.859571
v 17.150169 -1.203673 -3.928058
v 17.610489 1.933564 3.943547
v 17.485855 1.324273 -4.114047
v 23.161343 -3.859818 0.328198
v 16.33927 0.909804 3.281967
v 19.20289 4.007136 -2.88227
v 18.300159 -3.363566 3.285874
v 16.31147 -1.18168 3.162022
v 20.352852 -3.759452 3.277502
v 18.875816 -3.775802 -3.078884
v 18.251122 3.291542 3.332743
v 22.322294 3.901055 2.094928
v 22.974298 3.981886 -0.546018
v 22.884094 4.002103 0.815583
v 20.865639 3.93171 2.965186
v 21.634403 -4.035017 -2.45914
v 19.571074 3.671215 3.367224
v 22.447882 -3.876122 1.995885
v 20.298212 -3.997178 -2.988919
v 22.099451 4.043934 -2.058861
v 16.682692 -2.61967 2.670728
v 17.230721 -3.338226 -2.487437
v 16.71776 2.722572 2.610459
v 16.414312 0.063416 -3.484081
v 22.493647 -4.081252 -1.457776
v 20.692303 4.119893 -2.747216
v 17.480711 3.5723 -2.427314
v 16.326162 -2.047135 -2.704098
v 16.610985 2.226223 -2.925493
v 15.562078 1.555737 1.698389
v 17.662128 4.047924 1.77445
v 18.281778 -4.455119 -1.483115
v 18.470598 4.531483 -1.458284
v 21.493689 4.724403 -0.670004
v 21.720989 -4.643371 0.690872
v 20.975779 -4.788288 -1.058375
v 19.730227 -4.554642 2.045107
v 15.371393 -0.526722 1.816195
v 20.9032 4.730195 1.345171
v 16.359062 3.260231 1.055684
v 15.671896 -2.018252 1.481274
v 16.755524 -3.729346 -0.751899
v 19.666136 4.637448 1.839187
v 19.9776 4.827133 -1.303184
v 18.647379 4.392829 1.968113
v 16.947805 3.891661 -0.734225
v 15.823724 -2.514045 -1.112788
v 16.015629 2.725232 -1.303035
v 17.855791 -4.228589 1.587893
v 19.608347 -4.754234 -1.497954
v 17.917377 -4.542738 0.161901
v 18.582518 4.793948 0.09384
v 19.823284 -4.990884 0.244641
v 15.540543 0.670971 -2.159406
v 15.481491 2.139626 0.071253
v 15.466921 -0.986108 -1.865151
v 15.01267 0.101576 0.340902
v 15.985704 -2.949181 0.43331
v 15.106071 -1.015797 0.132728
vn 0.16874034702777863 -0.09160307049751282 -0.9813947677612305
vn 0.49372929334640503 -0.08348286896944046 -0.8655992150306702
vn 0.3418411612510681 -0.1978640854358673 -0.9186916947364807
vn 0.7596181035041809 -0.08443906158208847 -0.6448646187782288
vn 0.6493077278137207 -0.19014999270439148 -0.7363710999488831
vn 0.9336102604866028 -0.0806310847401619 -0.34909969568252563
vn 0.8684087991714478 -0.18808315694332123 -0.4587928354740143
vn 0.9967027902603149 -0.08061132580041885 -0.009238096885383129
vn 0.975794792175293 -0.18229545652866364 -0.12080159038305283
vn 0.9402427077293396 -0.07980739325284958 0.33102041482925415
vn 0.9564622044563293 -0.17765381932258606 0.23155802488327026
vn 0.7641227841377258 -0.07690322399139404 0.6404704451560974
vn 0.8075867891311646 -0.17569535970687866 0.5629695057868958
vn 0.4900282025337219 -0.08073592185974121 0.86795973777771
vn 0.550239622592926 -0.1665206104516983 0.8182342052459717
vn 0.1682555228471756 -0.08268538862466812 0.9822694659233093
vn 0.23295725882053375 -0.15943345427513123 0.9593288898468018
vn 0.16874034702777863 0.09160307049751282 -0.9813947677612305
vn 0.49372929334640503 0.08348285406827927 -0.8655992150306702
vn 0.3418411612510681 0.1978640854358673 -0.9186916947364807
vn 0.7596181035041809 0.08443907648324966 -0.6448646187782288
vn 0.6493077278137207 0.19014999270439148 -0.7363710999488831
vn 0.9336102604866028 0.08063109964132309 -0.34909969568252563
vn 0.8684087991714478 0.18808315694332123 -0.4587928354740143
vn 0.9967027902603149 0.08061132580041885 -0.009238096885383129
vn 0.975794792175293 0.18229545652866364 -0.12080159038305283
vn 0.9402427077293396 0.07980736345052719 0.33102041482925415
vn 0.9564622044563293 0.17765381932258606 0.23155802488327026
vn 0.7641227841377258 0.07690323889255524 0.6404704451560974
vn 0.8075867891311646 0.17569535970687866 0.5629695057868958
vn 0.4900282025337219 0.080735944211483 0.86795973777771
vn 0.550239622592926 0.1665206104516983 0.8182342052459717
vn 0.1682555228471756 0.08268538862466812 0.9822694659233093
vn 0.23295725882053375 0.15943345427513123 0.9593288898468018
vn -0.10119476914405823 0.1522608995437622 0.983146071434021
vn -0.08019831031560898 -0.14719520509243011 0.9858507513999939
vn -0.020733799785375595 0.20083589851856232 -0.979405403137207
vn -0.1994582712650299 0.01014899555593729 0.9798537492752075
vn 0.00041649825288914144 -0.1890922337770462 -0.9819592833518982
vn -0.1802516132593155 -0.0819411501288414 -0.9802014827728271
vn -0.17823459208011627 0.09580317884683609 -0.9793131351470947
vn 0.3249755799770355 -0.3872952461242676 -0.8627822995185852
vn 0.921496570110321 -0.3722313344478607 -0.11085119098424911
vn 0.9016669392585754 -0.37141722440719604 0.2214631289243698
vn 0.8866838216781616 -0.4547792971134186 0.08347216993570328
vn 0.7594122886657715 -0.37345072627067566 0.53275465965271
vn 0.7776035070419312 -0.44183358550071716 0.44734320044517517
vn 0.5134627819061279 -0.3803131580352783 0.7692319750785828
vn 0.5357695817947388 -0.41633671522140503 0.7345847487449646
vn 0.21415181457996368 -0.3880223333835602 0.8964249491691589
vn -0.10947392880916595 -0.3305906653404236 0.9374035000801086
vn -0.012119604274630547 0.3964463174343109 -0.9179779291152954
vn -0.33877119421958923 -0.003846654901280999 0.9408609867095947
vn -0.002083557192236185 -0.396034836769104 -0.9182331562042236
vn 0.14337629079818726 -0.47277316451072693 -0.8694416880607605
vn 0.6134302616119385 0.3842926323413849 -0.6899438500404358
vn 0.8185237050056458 0.38251471519470215 -0.42860397696495056
vn 0.7169872522354126 0.465637743473053 -0.5187588334083557
vn 0.9159021377563477 0.3860585689544678 -0.10991863906383514
vn 0.8748499751091003 0.44828617572784424 -0.18351298570632935
vn 0.8937084078788757 0.3910813629627228 0.2198650985956192
vn 0.8868554830551147 0.4244740903377533 0.1825077384710312
vn 0.7521711587905884 0.39418652653694153 0.5280676484107971
vn 0.52401202917099 0.3336047828197479 0.7836576104164124
vn 0.21958692371845245 0.3370659351348877 0.9155151844024658
vn 0.3419458866119385 0.42735767364501953 0.8369220495223999
vn -0.11832808703184128 0.30337321758270264 0.9454962611198425
vn 0.004118180368095636 0.41422662138938904 0.910164475440979
vn 0.6121177077293396 -0.3892931640148163 -0.6883043050765991
vn 0.47944411635398865 -0.47098103165626526 -0.7404797673225403
vn 0.8200628757476807 -0.37818363308906555 -0.42950430512428284
vn 0.7276965379714966 -0.4472779929637909 -0.520000159740448
vn 0.8591520190238953 -0.44469186663627625 -0.25319331884384155
vn 0.32464301586151123 0.3898845314979553 -0.8617405891418457
vn 0.4586299955844879 0.46173232793807983 -0.7592507600784302
vn 0.1569395214319229 0.4685353934764862 -0.8693931698799133
vn 0.11753987520933151 -0.46902814507484436 0.8753267526626587
vn -0.17104867100715637 0.4793338477611542 -0.8608028292655945
vn -0.27205732464790344 -0.36864927411079407 0.8888658285140991
vn -0.4320215880870819 -0.2070101648569107 0.8777835965156555
vn -0.20425157248973846 -0.46276018023490906 -0.8626322150230408
vn -0.374796599149704 -0.3061639368534088 -0.8750949501991272
vn -0.3768174648284912 -0.21815605461597443 -0.9002314209938049
vn -0.3215586543083191 0.3561444878578186 0.8773604035377502
vn 0.678063690662384 0.46746572852134705 0.5671907067298889
vn -0.35434481501579285 0.19205451011657715 -0.9151802062988281
vn -0.3503343164920807 0.3791155517101288 -0.8564678430557251
vn -0.47396135330200195 0.18494169414043427 0.8609049320220947
vn 0.7703886032104492 -0.6330556273460388 0.07577550411224365
vn -0.5674019455909729 0.1862073689699173 0.8021108508110046
vn -0.16887415945529938 0.6640674471855164 -0.7283515930175781
vn -0.31262877583503723 -0.5338375568389893 0.785672128200531
vn -0.579204797744751 -0.22438271343708038 0.7836926579475403
vn 0.1042666882276535 -0.5658673048019409 0.817876935005188
vn -0.21815218031406403 -0.6142550110816956 -0.7583536505699158
vn -0.34142276644706726 0.5147832632064819 0.7864024043083191
vn 0.6082040667533875 0.5991597175598145 0.5206682682037354
vn 0.7410994172096252 0.6551659107208252 -0.1467290222644806
vn 0.7367199063301086 0.6557500958442688 0.1650320440530777
vn 0.6366243958473206 0.6948777437210083 0.3344460427761078
vn 0.7068422436714172 0.706437349319458 0.03633805736899376
vn 0.29063931107521057 0.6376969814300537 0.7133521437644958
vn 0.3809504806995392 0.6919379234313965 0.6132688522338867
vn 0.4077257812023163 -0.6679803133010864 -0.6225447654724121
vn -0.023480698466300964 0.5904251933097839 0.8067507147789001
vn -0.19762377440929413 0.6179364919662476 0.7609857320785522
vn 0.09473957121372223 0.6681445837020874 0.7379751205444336
vn 0.6588337421417236 -0.645118772983551 0.38698816299438477
vn 0.6504138708114624 -0.7094694375991821 0.2713207006454468
vn 0.423527330160141 -0.6744762063026428 0.6047367453575134
vn 0.12024936079978943 -0.6674250960350037 -0.7349039316177368
vn -0.06610824912786484 -0.7097732424736023 -0.7013213634490967
vn 0.23674066364765167 -0.7232365608215332 -0.6487548351287842
vn 0.598170280456543 0.6776646971702576 -0.4277415871620178
vn 0.6078379154205322 0.725965142250061 -0.3217259347438812
vn 0.3767924904823303 0.703454852104187 -0.6026431322097778
vn -0.6992924213409424 -0.031660228967666626 0.7141343355178833
vn -0.1287030130624771 -0.6825473308563232 0.7194196581840515
vn -0.6149129271507263 -0.3924371302127838 0.6840139031410217
vn -0.5053517818450928 -0.5467348098754883 0.6676082015037537
vn 0.32851335406303406 -0.7268120050430298 0.6031776666641235
vn -0.4036242663860321 -0.6574947834014893 -0.6362295746803284
vn -0.5142191648483276 0.5416754484176636 0.6649557948112488
vn -0.5491653084754944 -0.026243293657898903 -0.8353016376495361
vn -0.5474449396133423 0.04781702533364296 -0.8354743719100952
vn 0.50945645570755 -0.7205275893211365 -0.47041910886764526
vn 0.5948421955108643 -0.6873818635940552 -0.416735976934433
vn 0.13281141221523285 0.6932485699653625 -0.7083554863929749
vn 0.3335327208042145 0.7257243990898132 -0.6017308831214905
vn 0.00593445124104619 0.7344469428062439 -0.6786401867866516
vn -0.6489325165748596 0.3797232210636139 0.6593154072761536
vn 0.6792692542076111 -0.7081909775733948 -0.1925068199634552
vn -0.34214189648628235 0.704470694065094 -0.6218198537826538
vn -0.5770066380500793 -0.4372941553592682 -0.6898095011711121
vn -0.5684203505516052 -0.506982147693634 -0.6479718089103699
vn -0.5188646912574768 0.4524731934070587 -0.7252913117408752
vn -0.5114189982414246 0.568824291229248 -0.6441192030906677
vn 0.672221839427948 -0.722466766834259 -0.16173908114433289
vn -0.7733566761016846 0.3558332026004791 0.5246924161911011
vn -0.5020785331726074 0.6881533265113831 0.5237958431243896
vn -0.38234132528305054 -0.7903153896331787 -0.4787658154964447
vn -0.33091872930526733 0.8175789713859558 -0.47122976183891296
vn 0.45174604654312134 0.8630893230438232 -0.22583696246147156
vn 0.5073900818824768 -0.8360130786895752 0.2088959664106369
vn 0.3285005986690521 -0.8876083493232727 -0.3228602707386017
vn 0.4643828868865967 -0.8833121061325073 -0.06409502774477005
vn 0.22442936897277832 -0.8665639162063599 0.4457559585571289
vn 0.22924138605594635 -0.8894996047019958 0.39527079463005066
vn -0.1507730633020401 -0.7942161560058594 0.5886324644088745
vn -0.8244906067848206 -0.021470215171575546 0.5654681921005249
vn -0.8746474385261536 0.10683753341436386 0.47284001111984253
vn 0.2750931680202484 0.85981285572052 0.4301692545413971
vn 0.22035165131092072 0.9104729890823364 -0.3499773144721985
vn -0.7402758598327637 -0.20563280582427979 -0.640083372592926
vn -0.6229610443115234 0.6836739182472229 0.3801439702510834
vn -0.7918323874473572 -0.3703364431858063 0.4856462776660919
vn -0.8459519743919373 -0.2732619643211365 0.45792269706726074
vn -0.5278937816619873 -0.7860346436500549 -0.32167965173721313
vn 0.10953695327043533 0.8905578255653381 0.4414844512939453
vn -0.0041754948906600475 0.8453099131584167 0.534260094165802
vn -0.6860156059265137 0.23979666829109192 -0.686935305595398
vn 0.4471282958984375 0.894320547580719 0.016342684626579285
vn 0.13994838297367096 -0.8980154991149902 -0.4171121418476105
vn 0.3910592794418335 0.8880167007446289 0.24186567962169647
vn -0.026730630546808243 0.8924625515937805 -0.45032888650894165
vn 0.20652763545513153 0.9152126908302307 -0.3460233509540558
vn -0.13604097068309784 0.9049501419067383 -0.40318506956100464
vn 0.3997472822666168 -0.9117133021354675 -0.09476830810308456
vn -0.2415158599615097 0.7882381677627563 0.5659953355789185
vn -0.3716266453266144 0.7722406387329102 0.5153037905693054
vn -0.1357332170009613 0.8411706686019897 0.5234582424163818
vn -0.4892505705356598 0.8159816265106201 -0.3079088628292084
vn -0.7200212478637695 -0.5707091689109802 -0.3947916030883789
vn -0.697564423084259 -0.6339831948280334 -0.3338698744773865
vn -0.7880342602729797 0.502549409866333 0.35559260845184326
vn -0.6504533290863037 0.6824343204498291 -0.33345741033554077
vn -0.6763508319854736 0.5967870354652405 -0.4317346513271332
vn -0.264274001121521 -0.8296282887458801 0.4918089807033539
vn -0.5112395882606506 -0.704272449016571 0.4925793409347534
vn -0.10399404168128967 -0.8665571212768555 -0.4881229102611542
vn -0.20159251987934113 -0.8719218373298645 -0.44622042775154114
vn 0.10906849801540375 -0.9057857990264893 -0.40945830941200256
vn -0.5570142269134521 0.8235412836074829 0.10730725526809692
vn -0.4832029938697815 -0.8620441555976868 -0.15295350551605225
vn -0.4324922263622284 0.8936262726783752 -0.11992686241865158
vn -0.17520849406719208 0.9727491736412048 -0.15185858309268951
vn -0.5172687768936157 0.8506114482879639 0.0943039134144783
vn 0.17892296612262726 -0.9838488698005676 0.0052829100750386715
vn 0.01933896727859974 -0.9903981685638428 -0.13688455522060394
vn 0.12007412314414978 -0.9634093642234802 0.2396344542503357
vn -0.7623245716094971 0.22595401108264923 -0.6064701080322266
vn -0.831380307674408 0.36643174290657043 -0.41777339577674866
vn -0.8514444231987 0.478803426027298 0.21398508548736572
vn 0.36771252751350403 0.9239822626113892 0.10509192198514938
vn -0.7927117347717285 -0.18191131949424744 -0.5818215608596802
vn -0.8451902270317078 -0.056819215416908264 -0.5314368009567261
vn -0.8426093459129333 -0.3831190764904022 -0.3784562647342682
vn -0.21883490681648254 -0.9508508443832397 0.21907496452331543
vn -0.9555342793464661 0.10312347114086151 0.27626028656959534
vn -0.9618417620658875 0.2389017641544342 0.13336528837680817
vn -0.7734856605529785 0.6330505609512329 -0.031095067039132118
vn 0.06131816282868385 0.9980040788650513 0.015099217183887959
vn 0.009525596164166927 0.9994016289710999 0.03325187787413597
vn -0.776384174823761 -0.6232023239135742 -0.09405536204576492
vn -0.23248940706253052 -0.951884388923645 0.19966144859790802
vn -0.3592667877674103 0.9099485278129578 0.20717380940914154
vn -0.773430347442627 0.6331316828727722 -0.030817896127700806
vn -0.219864621758461 -0.9699066281318665 -0.10459761321544647
vn -0.22355523705482483 -0.9694278836250305 -0.10115639120340347
vn -0.6590783596038818 -0.686802864074707 0.3064596951007843
vn -0.6176754832267761 -0.7732000946998596 0.14366132020950317
vn -0.6241318583488464 -0.7743244171142578 0.1043119803071022
vn -0.7318292856216431 -0.6033591628074646 0.31683361530303955
vn -0.9458955526351929 -0.23968292772769928 0.21870927512645721
vn -0.9118638038635254 -0.4018276333808899 0.08389829099178314
vn -0.9086969494819641 -0.41686978936195374 -0.022122731432318687
vn -0.9236220717430115 0.308460533618927 -0.22753967344760895
vn -0.9753250479698181 -0.11647013574838638 0.1875520944595337
vn -0.9666417837142944 0.2014285773038864 -0.1582092046737671
vn -0.9366247057914734 -0.3042461574077606 -0.17369087040424347
vn -0.03118341602385044 0.9936122298240662 0.10845468938350677
vn -0.9787319302558899 0.007077076006680727 -0.20502138137817383
vn -0.20278723537921906 0.9560802578926086 0.21163146197795868
vn -0.9827705025672913 -0.04894477501511574 -0.17823167145252228
f 1//1 3//1 11//1 
f 3//2 4//2 12//2 
f 3//3 12//3 11//3 
f 4//4 5//4 13//4 
f 4//5 13//5 12//5 
f 5//6 6//6 14//6 
f 5//7 14//7 13//7 
f 6//8 7//8 15//8 
f 6//9 15//9 14//9 
f 7//10 8//10 16//10 
f 7//11 16//11 15//11 
f 8//12 9//12 17//12 
f 8//13 17//13 16//13 
f 9//14 10//14 18//14 
f 9//15 18//15 17//15 
f 10//16 2//16 19//16 
f 10//17 19//17 18//17 
f 3//18 1//18 20//18 
f 4//19 3//19 21//19 
f 3//20 20//20 21//20 
f 5//21 4//21 22//21 
f 4//22 21//22 22//22 
f 6//23 5//23 23//23 
f 5//24 22//24 23//24 
f 7//25 6//25 24//25 
f 6//26 23//26 24//26 
f 8//27 7//27 25//27 
f 7//28 24//28 25//28 
f 9//29 8//29 26//29 
f 8//30 25//30 26//30 
f 10//31 9//31 27//31 
f 9//32 26//32 27//32 
f 2//33 10//33 28//33 
f 10//34 27//34 28//34 
f 2//35 28//35 29//35 
f 19//36 2//36 30//36 
f 20//37 1//37 31//37 
f 2//38 29//38 30//38 
f 1//39 11//39 32//39 
f 1//40 32//40 33//40 
f 1//41 33//41 31//41 
f 11//42 12//42 34//42 
f 14//43 15//43 35//43 
f 15//44 16//44 36//44 
f 15//45 36//45 35//45 
f 16//46 17//46 37//46 
f 16//47 37//47 36//47 
f 17//48 18//48 38//48 
f 17//49 38//49 37//49 
f 18//50 19//50 38//50 
f 19//51 30//51 39//51 
f 20//52 31//52 40//52 
f 30//53 29//53 41//53 
f 32//54 11//54 42//54 
f 11//55 34//55 42//55 
f 22//56 21//56 43//56 
f 23//57 22//57 44//57 
f 22//58 43//58 44//58 
f 24//59 23//59 45//59 
f 23//60 44//60 45//60 
f 25//61 24//61 46//61 
f 24//62 45//62 46//62 
f 26//63 25//63 46//63 
f 27//64 26//64 47//64 
f 28//65 27//65 48//65 
f 27//66 47//66 48//66 
f 29//67 28//67 49//67 
f 28//68 48//68 49//68 
f 12//69 13//69 50//69 
f 12//70 50//70 34//70 
f 13//71 14//71 51//71 
f 50//72 13//72 51//72 
f 14//73 35//73 51//73 
f 21//74 20//74 52//74 
f 43//75 21//75 52//75 
f 20//76 40//76 52//76 
f 38//77 19//77 39//77 
f 40//78 31//78 53//78 
f 39//79 30//79 54//79 
f 30//80 41//80 54//80 
f 32//81 42//81 55//81 
f 32//82 55//82 56//82 
f 32//83 56//83 33//83 
f 29//84 49//84 57//84 
f 47//85 26//85 46//85 
f 31//86 33//86 58//86 
f 31//87 58//87 53//87 
f 29//88 57//88 41//88 
f 35//89 36//89 59//89 
f 41//90 57//90 60//90 
f 40//91 53//91 61//91 
f 39//92 54//92 62//92 
f 54//93 41//93 63//93 
f 38//94 39//94 64//94 
f 55//95 42//95 65//95 
f 57//96 49//96 66//96 
f 47//97 46//97 67//97 
f 45//98 44//98 68//98 
f 46//99 45//99 69//99 
f 67//100 46//100 69//100 
f 45//101 68//101 69//101 
f 48//102 47//102 70//102 
f 47//103 67//103 70//103 
f 34//104 50//104 71//104 
f 49//105 48//105 72//105 
f 66//106 49//106 72//106 
f 48//107 70//107 72//107 
f 36//108 37//108 73//108 
f 36//109 73//109 59//109 
f 37//110 38//110 73//110 
f 42//111 34//111 74//111 
f 65//112 42//112 74//112 
f 34//113 71//113 74//113 
f 44//114 43//114 75//114 
f 44//115 75//115 68//115 
f 43//116 52//116 75//116 
f 41//117 60//117 63//117 
f 39//118 62//118 64//118 
f 54//119 63//119 76//119 
f 54//120 76//120 62//120 
f 38//121 64//121 73//121 
f 55//122 65//122 77//122 
f 57//123 66//123 78//123 
f 33//124 56//124 79//124 
f 33//125 79//125 58//125 
f 71//126 50//126 80//126 
f 50//127 51//127 80//127 
f 52//128 40//128 81//128 
f 75//129 52//129 81//129 
f 40//130 61//130 81//130 
f 60//131 57//131 78//131 
f 51//132 35//132 80//132 
f 61//133 53//133 82//133 
f 56//134 55//134 83//134 
f 55//135 77//135 83//135 
f 53//136 58//136 84//136 
f 53//137 84//137 82//137 
f 35//138 59//138 80//138 
f 60//139 78//139 85//139 
f 78//140 66//140 86//140 
f 77//141 65//141 87//141 
f 61//142 82//142 88//142 
f 68//143 75//143 89//143 
f 59//144 73//144 90//144 
f 71//145 80//145 91//145 
f 80//146 59//146 90//146 
f 73//147 64//147 92//147 
f 73//148 92//148 90//148 
f 64//149 62//149 92//149 
f 63//150 60//150 93//150 
f 60//151 85//151 93//151 
f 70//152 67//152 94//152 
f 89//153 75//153 81//153 
f 79//154 56//154 83//154 
f 78//155 86//155 95//155 
f 76//156 63//156 96//156 
f 63//157 93//157 96//157 
f 77//158 87//158 97//158 
f 70//159 94//159 98//159 
f 70//160 98//160 72//160 
f 58//161 79//161 84//161 
f 68//162 89//162 69//162 
f 71//163 91//163 74//163 
f 67//164 69//164 94//164 
f 81//165 61//165 99//165 
f 89//166 81//166 99//166 
f 61//167 88//167 99//167 
f 80//168 90//168 91//168 
f 66//169 72//169 100//169 
f 86//170 66//170 100//170 
f 72//171 98//171 100//171 
f 88//172 82//172 101//172 
f 83//173 77//173 102//173 
f 77//174 97//174 102//174 
f 78//175 95//175 85//175 
f 101//176 82//176 103//176 
f 82//177 84//177 103//177 
f 92//178 62//178 104//178 
f 62//179 76//179 104//179 
f 65//180 74//180 105//180 
f 87//181 65//181 105//181 
f 74//182 91//182 105//182 
f 95//183 86//183 101//183 
f 97//184 87//184 106//184 
f 88//185 101//185 107//185 
f 99//186 88//186 107//186 
f 101//187 86//187 107//187 
f 91//188 90//188 108//188 
f 105//189 91//189 108//189 
f 90//190 92//190 108//190 
f 84//191 79//191 109//191 
f 84//192 109//192 103//192 
f 85//193 95//193 110//193 
f 69//194 89//194 94//194 
f 79//195 83//195 111//195 
f 109//196 79//196 111//196 
f 83//197 102//197 111//197 
f 92//198 104//198 108//198 
f 93//199 85//199 112//199 
f 85//200 110//200 112//200 
f 95//201 101//201 110//201 
f 94//202 89//202 99//202 
f 94//203 99//203 107//203 
f 102//204 97//204 113//204 
f 108//205 104//205 106//205 
f 107//206 86//206 100//206 
f 110//207 101//207 103//207 
f 87//208 105//208 108//208 
f 87//209 108//209 106//209 
f 104//210 76//210 113//210 
f 104//211 113//211 106//211 
f 113//212 97//212 106//212 
f 113//213 76//213 96//213 
f 96//214 93//214 114//214 
f 96//215 114//215 113//215 
f 102//216 113//216 114//216 
f 103//217 109//217 110//217 
f 93//218 112//218 114//218 
f 112//219 110//219 109//219 
f 102//220 114//220 111//220 
f 98//221 94//221 107//221 
f 112//222 109//222 111//222 
f 100//223 98//223 107//223 
f 114//224 112//224 111//224 
