# Created by FreeCAD <http://www.freecadweb.org>
v 20.000000 -0.000000 0.000000
v 19.893997 2.056420 0.000000
v 20.000000 -0.000000 1.000000
v 19.893997 2.056420 1.000000
v 19.577114 4.091041 0.000000
v 19.577114 4.091041 1.000000
v 19.052708 6.082297 0.000000
v 19.052708 6.082297 1.000000
v 18.326338 8.009078 0.000000
v 18.326338 8.009078 1.000000
v 17.405704 9.850962 0.000000
v 17.405704 9.850962 1.000000
v 16.300568 11.588422 0.000000
v 16.300568 11.588422 1.000000
v 15.022638 13.203042 0.000000
v 15.022638 13.203042 1.000000
v 13.585466 14.677708 0.000000
v 13.585466 14.677708 1.000000
v 12.004286 15.996785 0.000000
v 12.004286 15.996785 1.000000
v 10.295856 17.146292 0.000000
v 10.295856 17.146292 1.000000
v 8.478288 18.114046 0.000000
v 8.478288 18.114046 1.000000
v 6.570848 18.889784 0.000000
v 6.570848 18.889784 1.000000
v 4.593755 19.465288 0.000000
v 4.593755 19.465288 1.000000
v 2.567967 19.834454 0.000000
v 2.567967 19.834454 1.000000
v 0.514958 19.993370 0.000000
v 0.514958 19.993370 1.000000
v -1.543509 19.940350 0.000000
v -1.543509 19.940350 1.000000
v -3.585615 19.675959 0.000000
v -3.585615 19.675959 1.000000
v -5.589713 19.202997 0.000000
v -5.589713 19.202997 1.000000
v -7.534558 18.526480 0.000000
v -7.534558 18.526480 1.000000
v -9.399535 17.653576 0.000000
v -9.399535 17.653576 1.000000
v -11.164874 16.593540 1.000000
v -11.164874 16.593540 0.000000
v -12.811864 15.357609 0.000000
v -12.811864 15.357609 1.000000
v -14.323044 13.958883 0.000000
v -14.323044 13.958883 1.000000
v -15.682396 12.412189 0.000000
v -15.682396 12.412189 1.000000
v -16.875511 10.733924 0.000000
v -16.875511 10.733924 1.000000
v -17.889742 8.941875 0.000000
v -17.889742 8.941875 1.000000
v -18.714336 7.055042 0.000000
v -18.714336 7.055042 1.000000
v -19.340555 5.093422 1.000000
v -19.340555 5.093422 0.000000
v -19.761759 3.077811 0.000000
v -19.761759 3.077811 1.000000
v -19.973482 1.029575 0.000000
v -19.973482 1.029575 1.000000
v -19.973482 -1.029575 1.000000
v -19.973482 -1.029575 0.000000
v -19.761759 -3.077811 0.000000
v -19.761759 -3.077811 1.000000
v -19.340555 -5.093422 1.000000
v -19.340555 -5.093422 0.000000
v -18.714336 -7.055042 0.000000
v -18.714336 -7.055042 1.000000
v -17.889742 -8.941875 1.000000
v -17.889742 -8.941875 0.000000
v -16.875511 -10.733924 0.000000
v -16.875511 -10.733924 1.000000
v -15.682396 -12.412189 1.000000
v -15.682396 -12.412189 0.000000
v -14.323044 -13.958883 0.000000
v -14.323044 -13.958883 1.000000
v -12.811864 -15.357609 0.000000
v -12.811864 -15.357609 1.000000
v -11.164874 -16.593540 0.000000
v -11.164874 -16.593540 1.000000
v -9.399535 -17.653576 0.000000
v -9.399535 -17.653576 1.000000
v -7.534558 -18.526480 0.000000
v -7.534558 -18.526480 1.000000
v -5.589713 -19.202997 0.000000
v -5.589713 -19.202997 1.000000
v -3.585615 -19.675959 1.000000
v -3.585615 -19.675959 0.000000
v -1.543509 -19.940350 0.000000
v -1.543509 -19.940350 1.000000
v 0.514958 -19.993370 0.000000
v 0.514958 -19.993370 1.000000
v 2.567967 -19.834454 0.000000
v 2.567967 -19.834454 1.000000
v 4.593755 -19.465288 0.000000
v 4.593755 -19.465288 1.000000
v 6.570848 -18.889784 0.000000
v 6.570848 -18.889784 1.000000
v 8.478288 -18.114046 0.000000
v 8.478288 -18.114046 1.000000
v 10.295856 -17.146292 0.000000
v 10.295856 -17.146292 1.000000
v 12.004286 -15.996785 0.000000
v 12.004286 -15.996785 1.000000
v 13.585466 -14.677708 1.000000
v 13.585466 -14.677708 0.000000
v 15.022638 -13.203042 0.000000
v 15.022638 -13.203042 1.000000
v 16.300568 -11.588422 0.000000
v 16.300568 -11.588422 1.000000
v 17.405704 -9.850962 0.000000
v 17.405704 -9.850962 1.000000
v 18.326338 -8.009078 1.000000
v 18.326338 -8.009078 0.000000
v 19.052708 -6.082297 0.000000
v 19.052708 -6.082297 1.000000
v 19.577114 -4.091041 0.000000
v 19.577114 -4.091041 1.000000
v 19.893997 -2.056420 1.000000
v 19.893997 -2.056420 0.000000
vn 0.998674 0.051479 -0.000000
vn 0.998674 0.051479 0.000000
vn 0.988088 0.153890 0.000000
vn 0.988088 0.153890 -0.000000
vn 0.967028 0.254671 0.000000
vn 0.967028 0.254671 -0.000000
vn 0.935717 0.352752 0.000000
vn 0.935717 0.352752 -0.000000
vn 0.894487 0.447094 0.000000
vn 0.894487 0.447094 -0.000000
vn 0.843776 0.536696 0.000000
vn 0.843776 0.536696 -0.000000
vn 0.784119 0.620610 0.000000
vn 0.784119 0.620610 -0.000000
vn 0.716152 0.697944 0.000000
vn 0.716152 0.697944 -0.000000
vn 0.640593 0.767880 0.000000
vn 0.640593 0.767880 -0.000000
vn 0.558243 0.829677 0.000000
vn 0.558243 0.829677 -0.000000
vn 0.469977 0.882679 0.000000
vn 0.469977 0.882679 -0.000000
vn 0.376727 0.926324 0.000000
vn 0.376727 0.926324 -0.000000
vn 0.279486 0.960150 0.000000
vn 0.279486 0.960150 -0.000000
vn 0.179280 0.983798 0.000000
vn 0.179280 0.983798 -0.000000
vn 0.077176 0.997018 0.000000
vn 0.077176 0.997018 -0.000000
vn -0.025749 0.999668 0.000000
vn -0.025749 0.999668 0.000000
vn -0.128398 0.991723 0.000000
vn -0.128398 0.991723 0.000000
vn -0.229688 0.973264 0.000000
vn -0.229688 0.973264 0.000000
vn -0.328542 0.944489 0.000000
vn -0.328542 0.944489 0.000000
vn -0.423914 0.905702 0.000000
vn -0.423914 0.905702 0.000000
vn -0.514793 0.857315 0.000000
vn -0.514793 0.857315 0.000000
vn -0.600214 0.799839 0.000000
vn -0.600214 0.799839 0.000000
vn -0.679273 0.733885 0.000000
vn -0.679273 0.733885 0.000000
vn -0.751132 0.660152 0.000000
vn -0.751132 0.660152 0.000000
vn -0.815028 0.579421 0.000000
vn -0.815028 0.579421 0.000000
vn -0.870285 0.492548 0.000000
vn -0.870285 0.492548 0.000000
vn -0.916317 0.400454 0.000000
vn -0.952635 0.304115 0.000000
vn -0.916317 0.400454 0.000000
vn -0.952635 0.304115 0.000000
vn -0.978856 0.204552 0.000000
vn -0.978856 0.204552 0.000000
vn -0.994700 0.102821 0.000000
vn -1.000000 -0.000000 -0.000000
vn -0.994700 0.102821 0.000000
vn -1.000000 0.000000 0.000000
vn -0.994700 -0.102821 0.000000
vn -0.978856 -0.204552 -0.000000
vn -0.994700 -0.102821 0.000000
vn -0.978856 -0.204552 0.000000
vn -0.952635 -0.304115 0.000000
vn -0.916317 -0.400454 -0.000000
vn -0.952635 -0.304115 0.000000
vn -0.916317 -0.400454 0.000000
vn -0.870285 -0.492548 0.000000
vn -0.815028 -0.579421 -0.000000
vn -0.870285 -0.492548 0.000000
vn -0.815028 -0.579421 0.000000
vn -0.751132 -0.660152 0.000000
vn -0.751132 -0.660152 0.000000
vn -0.679273 -0.733885 0.000000
vn -0.679273 -0.733885 0.000000
vn -0.600214 -0.799839 0.000000
vn -0.600214 -0.799839 0.000000
vn -0.514793 -0.857315 0.000000
vn -0.514793 -0.857315 0.000000
vn -0.423914 -0.905702 0.000000
vn -0.423914 -0.905702 0.000000
vn -0.328542 -0.944489 0.000000
vn -0.229688 -0.973264 -0.000000
vn -0.328542 -0.944489 0.000000
vn -0.229688 -0.973264 0.000000
vn -0.128398 -0.991723 0.000000
vn -0.128398 -0.991723 0.000000
vn -0.025749 -0.999668 0.000000
vn -0.025749 -0.999668 0.000000
vn 0.077176 -0.997018 0.000000
vn 0.077176 -0.997018 0.000000
vn 0.179280 -0.983798 0.000000
vn 0.179280 -0.983798 0.000000
vn 0.279486 -0.960150 0.000000
vn 0.279486 -0.960150 0.000000
vn 0.376727 -0.926324 0.000000
vn 0.376727 -0.926324 0.000000
vn 0.469977 -0.882679 0.000000
vn 0.469977 -0.882679 0.000000
vn 0.558243 -0.829677 0.000000
vn 0.558243 -0.829677 0.000000
vn 0.640593 -0.767880 0.000000
vn 0.640593 -0.767880 0.000000
vn 0.716152 -0.697944 0.000000
vn 0.716152 -0.697944 0.000000
vn 0.784119 -0.620610 0.000000
vn 0.784119 -0.620610 0.000000
vn 0.843776 -0.536696 0.000000
vn 0.843776 -0.536696 0.000000
vn 0.894487 -0.447094 0.000000
vn 0.894487 -0.447094 0.000000
vn 0.935717 -0.352752 0.000000
vn 0.935717 -0.352752 0.000000
vn 0.967028 -0.254671 0.000000
vn 0.967028 -0.254671 0.000000
vn 0.988088 -0.153890 0.000000
vn 0.988088 -0.153890 0.000000
vn 0.998674 -0.051479 0.000000
vn 0.998674 -0.051479 0.000000
vn 0.000000 0.000000 -1.000000
vn 0.000000 0.000000 -1.000000
vn 0.000000 0.000000 -1.000000
vn 0.000000 0.000000 -1.000000
vn 0.000000 0.000000 -1.000000
vn 0.000000 0.000000 -1.000000
vn 0.000000 0.000000 -1.000000
vn 0.000000 0.000000 -1.000000
vn 0.000000 0.000000 -1.000000
vn 0.000000 0.000000 -1.000000
vn 0.000000 0.000000 -1.000000
vn 0.000000 0.000000 -1.000000
vn 0.000000 0.000000 -1.000000
vn 0.000000 0.000000 -1.000000
vn 0.000000 0.000000 -1.000000
vn 0.000000 0.000000 -1.000000
vn 0.000000 -0.000000 -1.000000
vn 0.000000 0.000000 -1.000000
vn 0.000000 -0.000000 -1.000000
vn 0.000000 0.000000 -1.000000
vn 0.000000 -0.000000 -1.000000
vn 0.000000 0.000000 -1.000000
vn 0.000000 0.000000 -1.000000
vn 0.000000 -0.000000 -1.000000
vn 0.000000 -0.000000 -1.000000
vn 0.000000 -0.000000 -1.000000
vn 0.000000 0.000000 -1.000000
vn 0.000000 -0.000000 -1.000000
vn 0.000000 -0.000000 -1.000000
vn 0.000000 0.000000 -1.000000
vn 0.000000 0.000000 -1.000000
vn 0.000000 0.000000 -1.000000
vn 0.000000 0.000000 -1.000000
vn 0.000000 0.000000 -1.000000
vn 0.000000 0.000000 -1.000000
vn 0.000000 -0.000000 -1.000000
vn 0.000000 -0.000000 -1.000000
vn 0.000000 -0.000000 -1.000000
vn 0.000000 0.000000 -1.000000
vn 0.000000 0.000000 -1.000000
vn 0.000000 0.000000 -1.000000
vn 0.000000 -0.000000 -1.000000
vn 0.000000 -0.000000 -1.000000
vn 0.000000 -0.000000 -1.000000
vn 0.000000 0.000000 -1.000000
vn 0.000000 0.000000 -1.000000
vn -0.000000 -0.000000 -1.000000
vn -0.000000 -0.000000 -1.000000
vn -0.000000 -0.000000 -1.000000
vn 0.000000 -0.000000 -1.000000
vn 0.000000 0.000000 -1.000000
vn 0.000000 0.000000 -1.000000
vn 0.000000 0.000000 -1.000000
vn 0.000000 0.000000 -1.000000
vn 0.000000 0.000000 -1.000000
vn -0.000000 -0.000000 -1.000000
vn 0.000000 -0.000000 -1.000000
vn -0.000000 -0.000000 -1.000000
vn 0.000000 0.000000 -1.000000
vn 0.000000 0.000000 1.000000
vn 0.000000 0.000000 1.000000
vn 0.000000 0.000000 1.000000
vn 0.000000 0.000000 1.000000
vn 0.000000 0.000000 1.000000
vn 0.000000 0.000000 1.000000
vn 0.000000 0.000000 1.000000
vn 0.000000 0.000000 1.000000
vn 0.000000 0.000000 1.000000
vn 0.000000 0.000000 1.000000
vn 0.000000 0.000000 1.000000
vn 0.000000 0.000000 1.000000
vn 0.000000 0.000000 1.000000
vn 0.000000 0.000000 1.000000
vn 0.000000 0.000000 1.000000
vn 0.000000 0.000000 1.000000
vn 0.000000 0.000000 1.000000
vn 0.000000 0.000000 1.000000
vn 0.000000 0.000000 1.000000
vn 0.000000 0.000000 1.000000
vn 0.000000 0.000000 1.000000
vn 0.000000 0.000000 1.000000
vn 0.000000 0.000000 1.000000
vn 0.000000 0.000000 1.000000
vn 0.000000 0.000000 1.000000
vn 0.000000 0.000000 1.000000
vn 0.000000 0.000000 1.000000
vn 0.000000 0.000000 1.000000
vn 0.000000 0.000000 1.000000
vn 0.000000 0.000000 1.000000
vn 0.000000 0.000000 1.000000
vn 0.000000 0.000000 1.000000
vn 0.000000 0.000000 1.000000
vn 0.000000 0.000000 1.000000
vn 0.000000 0.000000 1.000000
vn 0.000000 0.000000 1.000000
vn 0.000000 0.000000 1.000000
vn 0.000000 0.000000 1.000000
vn 0.000000 0.000000 1.000000
vn 0.000000 0.000000 1.000000
vn 0.000000 0.000000 1.000000
vn 0.000000 0.000000 1.000000
vn 0.000000 0.000000 1.000000
vn 0.000000 0.000000 1.000000
vn 0.000000 0.000000 1.000000
vn 0.000000 0.000000 1.000000
vn 0.000000 0.000000 1.000000
vn 0.000000 0.000000 1.000000
vn 0.000000 0.000000 1.000000
vn 0.000000 0.000000 1.000000
vn 0.000000 0.000000 1.000000
vn 0.000000 0.000000 1.000000
vn 0.000000 0.000000 1.000000
vn 0.000000 0.000000 1.000000
vn 0.000000 0.000000 1.000000
vn 0.000000 0.000000 1.000000
vn 0.000000 0.000000 1.000000
vn 0.000000 0.000000 1.000000
vn 0.000000 0.000000 1.000000
f 1//1 2//1 3//1
f 3//2 2//2 4//2
f 4//3 5//3 6//3
f 2//4 5//4 4//4
f 6//5 7//5 8//5
f 5//6 7//6 6//6
f 8//7 9//7 10//7
f 7//8 9//8 8//8
f 10//9 11//9 12//9
f 9//10 11//10 10//10
f 12//11 13//11 14//11
f 11//12 13//12 12//12
f 14//13 15//13 16//13
f 13//14 15//14 14//14
f 16//15 17//15 18//15
f 15//16 17//16 16//16
f 18//17 19//17 20//17
f 17//18 19//18 18//18
f 20//19 21//19 22//19
f 19//20 21//20 20//20
f 22//21 23//21 24//21
f 21//22 23//22 22//22
f 24//23 25//23 26//23
f 23//24 25//24 24//24
f 26//25 27//25 28//25
f 25//26 27//26 26//26
f 28//27 29//27 30//27
f 27//28 29//28 28//28
f 30//29 31//29 32//29
f 29//30 31//30 30//30
f 32//31 33//31 34//31
f 31//32 33//32 32//32
f 34//33 35//33 36//33
f 33//34 35//34 34//34
f 36//35 37//35 38//35
f 35//36 37//36 36//36
f 38//37 39//37 40//37
f 37//38 39//38 38//38
f 39//39 41//39 40//39
f 40//40 41//40 42//40
f 42//41 41//41 43//41
f 41//42 44//42 43//42
f 44//43 45//43 43//43
f 43//44 45//44 46//44
f 45//45 47//45 46//45
f 46//46 47//46 48//46
f 48//47 49//47 50//47
f 47//48 49//48 48//48
f 50//49 51//49 52//49
f 49//50 51//50 50//50
f 52//51 53//51 54//51
f 51//52 53//52 52//52
f 54//53 55//53 56//53
f 56//54 55//54 57//54
f 53//55 55//55 54//55
f 55//56 58//56 57//56
f 57//57 59//57 60//57
f 58//58 59//58 57//58
f 60//59 61//59 62//59
f 62//60 61//60 63//60
f 59//61 61//61 60//61
f 61//62 64//62 63//62
f 63//63 65//63 66//63
f 66//64 65//64 67//64
f 64//65 65//65 63//65
f 65//66 68//66 67//66
f 67//67 69//67 70//67
f 70//68 69//68 71//68
f 68//69 69//69 67//69
f 69//70 72//70 71//70
f 71//71 73//71 74//71
f 74//72 73//72 75//72
f 72//73 73//73 71//73
f 73//74 76//74 75//74
f 75//75 77//75 78//75
f 76//76 77//76 75//76
f 78//77 79//77 80//77
f 77//78 79//78 78//78
f 80//79 81//79 82//79
f 79//80 81//80 80//80
f 82//81 83//81 84//81
f 81//82 83//82 82//82
f 84//83 85//83 86//83
f 83//84 85//84 84//84
f 86//85 87//85 88//85
f 88//86 87//86 89//86
f 85//87 87//87 86//87
f 87//88 90//88 89//88
f 90//89 91//89 89//89
f 89//90 91//90 92//90
f 91//91 93//91 92//91
f 92//92 93//92 94//92
f 93//93 95//93 94//93
f 94//94 95//94 96//94
f 95//95 97//95 96//95
f 96//96 97//96 98//96
f 97//97 99//97 98//97
f 98//98 99//98 100//98
f 99//99 101//99 100//99
f 100//100 101//100 102//100
f 101//101 103//101 102//101
f 102//102 103//102 104//102
f 103//103 105//103 104//103
f 104//104 105//104 106//104
f 106//105 105//105 107//105
f 105//106 108//106 107//106
f 108//107 109//107 107//107
f 107//108 109//108 110//108
f 109//109 111//109 110//109
f 110//110 111//110 112//110
f 111//111 113//111 112//111
f 112//112 113//112 114//112
f 114//113 113//113 115//113
f 113//114 116//114 115//114
f 116//115 117//115 115//115
f 115//116 117//116 118//116
f 118//117 119//117 120//117
f 117//118 119//118 118//118
f 120//119 119//119 121//119
f 119//120 122//120 121//120
f 121//121 1//121 3//121
f 122//122 1//122 121//122
f 77//123 81//123 79//123
f 76//124 73//124 77//124
f 77//125 73//125 81//125
f 81//126 85//126 83//126
f 69//127 68//127 72//127
f 72//128 65//128 73//128
f 68//129 65//129 72//129
f 85//130 95//130 87//130
f 87//131 95//131 90//131
f 90//132 95//132 91//132
f 91//133 95//133 93//133
f 61//134 59//134 64//134
f 81//135 97//135 85//135
f 85//136 97//136 95//136
f 81//137 99//137 97//137
f 73//138 99//138 81//138
f 58//139 55//139 59//139
f 64//140 55//140 65//140
f 59//141 55//141 64//141
f 73//142 101//142 99//142
f 53//143 51//143 55//143
f 73//144 105//144 101//144
f 101//145 105//145 103//145
f 51//146 49//146 55//146
f 45//147 44//147 47//147
f 47//148 44//148 49//148
f 109//149 113//149 111//149
f 49//150 41//150 55//150
f 44//151 41//151 49//151
f 109//152 116//152 113//152
f 108//153 116//153 109//153
f 73//154 117//154 105//154
f 108//155 117//155 116//155
f 105//156 117//156 108//156
f 65//157 117//157 73//157
f 39//158 37//158 41//158
f 41//159 35//159 55//159
f 37//160 35//160 41//160
f 117//161 122//161 119//161
f 117//162 1//162 122//162
f 65//163 1//163 117//163
f 33//164 31//164 35//164
f 31//165 29//165 35//165
f 35//166 29//166 55//166
f 1//167 5//167 2//167
f 5//168 9//168 7//168
f 25//169 23//169 27//169
f 27//170 23//170 29//170
f 23//171 21//171 29//171
f 55//172 13//172 65//172
f 9//173 13//173 11//173
f 65//174 13//174 1//174
f 1//175 13//175 5//175
f 5//176 13//176 9//176
f 13//177 17//177 15//177
f 19//178 17//178 21//178
f 29//179 17//179 55//179
f 21//180 17//180 29//180
f 55//181 17//181 13//181
f 82//182 78//182 80//182
f 74//183 75//183 78//183
f 74//184 78//184 82//184
f 86//185 82//185 84//185
f 67//186 70//186 71//186
f 66//187 71//187 74//187
f 66//188 67//188 71//188
f 96//189 86//189 88//189
f 96//190 88//190 89//190
f 96//191 89//191 92//191
f 96//192 92//192 94//192
f 60//193 62//193 63//193
f 98//194 82//194 86//194
f 98//195 86//195 96//195
f 100//196 82//196 98//196
f 100//197 74//197 82//197
f 56//198 57//198 60//198
f 56//199 63//199 66//199
f 56//200 60//200 63//200
f 102//201 74//201 100//201
f 52//202 54//202 56//202
f 106//203 74//203 102//203
f 106//204 102//204 104//204
f 50//205 52//205 56//205
f 43//206 46//206 48//206
f 43//207 48//207 50//207
f 114//208 110//208 112//208
f 42//209 50//209 56//209
f 42//210 43//210 50//210
f 115//211 110//211 114//211
f 115//212 107//212 110//212
f 118//213 74//213 106//213
f 118//214 107//214 115//214
f 118//215 106//215 107//215
f 118//216 66//216 74//216
f 38//217 40//217 42//217
f 36//218 42//218 56//218
f 36//219 38//219 42//219
f 121//220 118//220 120//220
f 3//221 118//221 121//221
f 3//222 66//222 118//222
f 32//223 34//223 36//223
f 30//224 32//224 36//224
f 30//225 36//225 56//225
f 6//226 3//226 4//226
f 10//227 6//227 8//227
f 24//228 26//228 28//228
f 24//229 28//229 30//229
f 22//230 24//230 30//230
f 14//231 56//231 66//231
f 14//232 10//232 12//232
f 14//233 66//233 3//233
f 14//234 3//234 6//234
f 14//235 6//235 10//235
f 18//236 14//236 16//236
f 18//237 20//237 22//237
f 18//238 30//238 56//238
f 18//239 22//239 30//239
f 18//240 56//240 14//240