# FreeCAD v0.20 build1 Arch module
# http://www.freecadweb.org
mtllib Sphere_2_Elmer.mtl
o Mesh002
usemtl color_cccccc
v -1000.0 -0.0 -500.0
v -1000.0 -0.0 500.0
v -832.405762 -0.0 -471.075531
v -678.632935 -0.0 -383.044647
v -568.593079 -0.0 -252.760925
v -507.855896 -0.0 -88.284698
v -507.310913 -0.0 85.190742
v -563.752014 -0.0 244.310623
v -681.651245 -0.0 385.556824
v -833.294006 -0.0 471.390625
v -918.393372 -140.56044 -472.845764
v -750.124878 -137.282898 -410.750305
v -620.933044 -134.128052 -297.183289
v -538.685486 -131.250717 -141.287491
v -517.815674 -128.495789 31.418018
v -557.418823 -125.813728 195.685471
v -661.779419 -123.387764 346.961487
v -805.630554 -120.941338 444.515167
v -969.27179 -118.533905 484.773651
v -918.393372 140.56044 -472.845764
v -750.124878 137.282898 -410.750305
v -620.933044 134.128052 -297.183289
v -538.685486 131.250717 -141.287491
v -517.815674 128.495789 31.418018
v -557.418823 125.813728 195.685471
v -661.779419 123.387764 346.961487
v -805.630554 120.941338 444.515167
v -969.27179 118.533905 484.773651
v -1137.705566 96.193024 470.939575
v -1120.321289 -92.39183 476.43103
v -1097.66272 147.072205 -467.794556
v -1081.753174 -138.901047 -473.310577
v -1176.624268 1.853955 -467.761078
v -853.142761 -286.099121 -382.858002
v -586.890564 -277.977692 -45.48616
v -601.493347 -275.4104 123.861061
v -689.741638 -270.888245 283.477142
v -825.515869 -263.821838 387.238068
v -1067.354614 -253.292603 425.800659
v -1000.927673 290.265015 -407.118378
v -1261.512695 -11.702123 425.997833
v -1015.869629 -285.694366 -410.032776
v -723.965332 282.977692 -306.151093
v -619.671143 280.572571 -163.183914
v -582.650269 275.301849 5.301303
v -612.845886 267.799957 168.507828
v -761.681519 255.278671 357.822723
v -918.798035 254.844818 422.445709
v -1088.880493 234.374741 432.630035
v -707.335327 -283.663239 -289.624847
v -626.93927 -280.878204 -178.698471
v -853.245239 287.909912 -381.537567
v -1166.891846 274.957367 -382.812683
v -1223.030762 -199.470688 400.58548
v -1192.703003 -252.846252 -385.920105
v -1284.585571 -120.477257 -393.06015
v -1238.75415 193.681152 394.314697
v -1250.864136 132.557022 -411.6987
v -683.605103 -385.741699 33.130493
v -1365.970947 91.190727 328.252258
v -1079.171265 400.906006 -288.108124
v -1169.587402 -336.599274 328.543823
v -1368.73938 -118.372765 316.258057
v -964.160217 -376.140656 327.465576
v -1112.138916 -377.774261 -307.752289
v -1174.615112 329.416534 333.158081
v -767.324829 390.245819 208.735458
v -702.513184 398.375214 -52.903698
v -711.542542 400.083954 82.006844
v -913.153503 393.383331 296.154083
v -836.25061 -403.602203 -245.543045
v -1042.60022 367.35907 336.500427
v -755.017761 -387.122437 200.299622
v -969.864258 -399.874023 -298.651306
v -789.901978 404.596588 -205.329987
v -1331.516235 -262.155304 267.154572
v -1276.708862 -334.047943 -248.684906
v -1328.016968 272.579651 260.969727
v -1358.122192 6.345293 -348.867065
v -750.34021 -408.330658 -144.692993
v -930.395142 412.159973 -274.370758
v -1251.472168 357.604126 -242.654129
v -1367.085693 -204.847061 -270.713501
v -1338.379028 222.902374 -292.940521
v -1443.69751 155.83934 169.842926
v -1233.494385 405.032715 177.281815
v -1171.583374 -445.660095 -148.142517
v -1152.378174 453.377777 -145.703354
v -850.798828 472.599091 -66.250252
v -827.648315 -464.137726 69.79303
v -902.5177 -478.923523 -105.496277
v -1026.393433 -455.67514 204.116486
v -1462.819336 -52.819332 181.68219
v -909.500793 473.135864 133.986343
v -1363.869751 326.305817 105.467049
v -1432.697021 -201.983109 148.243484
v -1324.284668 -373.093475 -75.104584
v -1033.184204 463.916168 183.52272
v -1002.0047 482.839386 -129.854141
v -1135.002441 439.487122 196.533524
v -1304.757568 389.546692 -73.322464
v -1417.460815 -251.541031 -111.595543
v -1398.006592 272.957764 -130.708939
v -1214.01709 -423.123383 158.629364
v -1039.065186 -475.520264 -149.513809
v -1208.091309 -454.346252 16.355564
v -1141.367065 479.50351 9.578321
v -1017.418884 -499.096344 24.482979
v -1445.636963 67.290649 -216.517014
v -1451.72998 214.218933 7.092236
v -1453.100098 -98.602783 -187.023453
v -1498.732666 10.016425 34.137955
v -1401.513916 -294.83252 43.131401
v -1489.343872 -101.807793 13.334146
vn 0.16936248540878296 -0.09124835580587387 -0.9813205599784851
vn 0.4950961172580719 -0.08329164981842041 -0.864836573600769
vn 0.34273749589920044 -0.1981038600206375 -0.9183059930801392
vn 0.761257529258728 -0.08411290496587753 -0.6429711580276489
vn 0.6507517695426941 -0.19055631756782532 -0.734990119934082
vn 0.9350610375404358 -0.08019690215587616 -0.3452959358692169
vn 0.8700112104415894 -0.1886340230703354 -0.4555192291736603
vn 0.9967756867408752 -0.08017776161432266 -0.00313142710365355
vn 0.9763790965080261 -0.18287435173988342 -0.1150689497590065
vn 0.939332127571106 -0.08148852735757828 0.3331886827945709
vn 0.9563360214233398 -0.17586930096149445 0.2334340214729309
vn 0.7654480338096619 -0.0765770748257637 0.6389250159263611
vn 0.8089514374732971 -0.17605628073215485 0.5608936548233032
vn 0.4909938871860504 -0.08045434951782227 0.8674399852752686
vn 0.5514535307884216 -0.16685183346271515 0.8173490166664124
vn 0.1685667783021927 -0.08247494697570801 0.9822337031364441
vn 0.23361141979694366 -0.15970084071159363 0.9591253399848938
vn 0.16936248540878296 0.09124835580587387 -0.9813205599784851
vn 0.4950961172580719 0.08329163491725922 -0.864836573600769
vn 0.34273749589920044 0.1981038600206375 -0.9183059930801392
vn 0.7612575888633728 0.08411289006471634 -0.6429712176322937
vn 0.6507517695426941 0.19055631756782532 -0.734990119934082
vn 0.9350610375404358 0.08019687980413437 -0.3452959358692169
vn 0.8700112104415894 0.1886340230703354 -0.4555192291736603
vn 0.9967756867408752 0.08017776161432266 -0.00313142710365355
vn 0.9763790965080261 0.18287435173988342 -0.1150689497590065
vn 0.939332127571106 0.08148855715990067 0.3331886827945709
vn 0.9563360214233398 0.17586930096149445 0.2334340214729309
vn 0.7654480338096619 0.0765770971775055 0.6389250159263611
vn 0.8089514374732971 0.17605628073215485 0.5608936548233032
vn 0.4909938871860504 0.08045437186956406 0.8674399852752686
vn 0.5514535307884216 0.16685183346271515 0.8173490166664124
vn 0.1685667783021927 0.0824749544262886 0.9822337031364441
vn 0.23361141979694366 0.15970084071159363 0.9591253399848938
vn -0.10097143799066544 0.15246495604515076 0.9831374883651733
vn -0.07995353639125824 -0.14736421406269073 0.9858454465866089
vn -0.020295163616538048 0.20098572969436646 -0.9793838858604431
vn -0.19970035552978516 0.010122276842594147 0.9798047542572021
vn 0.0008721657795831561 -0.18919017910957336 -0.9819400310516357
vn -0.1797873079776764 -0.08253199607133865 -0.9802371859550476
vn -0.17774535715579987 0.0964222103357315 -0.9793412685394287
vn 0.32582688331604004 -0.38720980286598206 -0.8624995350837708
vn 0.9222611784934998 -0.37188848853111267 -0.10551424324512482
vn 0.9007529020309448 -0.37256649136543274 0.2232450693845749
vn 0.887573778629303 -0.45305249094963074 0.08340360224246979
vn 0.7609906196594238 -0.3727903366088867 0.5309619903564453
vn 0.7794179320335388 -0.4425487816333771 0.44346150755882263
vn 0.5147857666015625 -0.3797643780708313 0.768618643283844
vn 0.5380194187164307 -0.4172324538230896 0.732429027557373
vn 0.21467642486095428 -0.3890092670917511 0.8958715796470642
vn -0.10903170704841614 -0.3308505117893219 0.93736332654953
vn -0.011453945189714432 0.3966802954673767 -0.9178853034973145
vn -0.3382960855960846 -0.0037828984204679728 0.9410320520401001
vn -0.001414239639416337 -0.39638957381248474 -0.9180814027786255
vn 0.143987238407135 -0.47291702032089233 -0.8692624568939209
vn 0.6148567199707031 0.38410067558288574 -0.6887800097465515
vn 0.8201329112052917 0.3823905289173126 -0.42562830448150635
vn 0.7184346914291382 0.4661906659603119 -0.516253650188446
vn 0.9164889454841614 0.38614657521247864 -0.10458928346633911
vn 0.8756666779518127 0.44876745343208313 -0.1783694475889206
vn 0.8932254314422607 0.39112982153892517 0.22173334658145905
vn 0.8867364525794983 0.4242686331272125 0.18356108665466309
vn 0.7533104419708252 0.3947541415691376 0.5260158777236938
vn 0.5252647995948792 0.33339452743530273 0.782908022403717
vn 0.22024108469486237 0.33700457215309143 0.9153806567192078
vn 0.3428458571434021 0.4276098906993866 0.8364248871803284
vn -0.11794339865446091 0.30378076434135437 0.9454134106636047
vn 0.00461704982444644 0.4144202172756195 0.9100739359855652
vn 0.6135096549987793 -0.3892199695110321 -0.6871053576469421
vn 0.4806903004646301 -0.47134846448898315 -0.7394372224807739
vn 0.8216930627822876 -0.37800896167755127 -0.4265322685241699
vn 0.7293686270713806 -0.4475852847099304 -0.5173865556716919
vn 0.8601809144020081 -0.4451201260089874 -0.24891135096549988
vn 0.32548120617866516 0.3898916244506836 -0.8614212274551392
vn 0.45986321568489075 0.46190980076789856 -0.7583964467048645
vn 0.15801730751991272 0.46869775652885437 -0.8691104054450989
vn 0.1190599724650383 -0.46951279044151306 0.8748614192008972
vn -0.17030324041843414 0.47976502776145935 -0.8607103824615479
vn -0.2715701460838318 -0.36908555030822754 0.88883376121521
vn -0.4320034086704254 -0.2073255181312561 0.8777182102203369
vn -0.20365823805332184 -0.46321365237236023 -0.8625290393829346
vn -0.37411966919898987 -0.3068961203098297 -0.8751281499862671
vn -0.37610921263694763 -0.2179972529411316 -0.9005659818649292
vn -0.3211296498775482 0.3566896319389343 0.8772960305213928
vn 0.6793956160545349 0.46808016300201416 0.565086305141449
vn -0.3534250259399414 0.19196166098117828 -0.9155552983283997
vn -0.3495829701423645 0.3798752725124359 -0.8564383387565613
vn -0.473972350358963 0.18531380593776703 0.8608188033103943
vn 0.7689839005470276 -0.6347425580024719 0.07593200355768204
vn -0.5669687390327454 0.1865956336259842 0.8023269772529602
vn -0.16793225705623627 0.6644986271858215 -0.7281760573387146
vn -0.3119746446609497 -0.5343127250671387 0.7856091260910034
vn -0.5787585973739624 -0.2247086614370346 0.7839288711547852
vn 0.10576628893613815 -0.5657461285591125 0.8177681565284729
vn -0.21756604313850403 -0.6146925687789917 -0.7581676244735718
vn -0.34093141555786133 0.5153489708900452 0.7862449288368225
vn 0.609856367111206 0.5988700985908508 0.5190662741661072
vn 0.7419214248657227 0.6551635265350342 -0.14252524077892303
vn 0.7351616024971008 0.6571962833404541 0.16622421145439148
vn 0.6373515129089355 0.6942153573036194 0.3344367742538452
vn 0.7067351937294006 0.7064378261566162 0.03835316747426987
vn 0.29142579436302185 0.6379328370094299 0.7128202319145203
vn 0.3819241523742676 0.6922894716262817 0.6122657060623169
vn 0.40879908204078674 -0.6679530143737793 -0.6218698024749756
vn -0.022827140986919403 0.59088534116745 0.8064324855804443
vn -0.19701194763183594 0.6184595227241516 0.7607194781303406
vn 0.09549621492624283 0.6684805154800415 0.7375732660293579
vn 0.6605793833732605 -0.645413339138031 0.38350555300712585
vn 0.6510922908782959 -0.7084762454032898 0.2722872495651245
vn 0.4270166754722595 -0.6724326610565186 0.6045584678649902
vn 0.12099680304527283 -0.6677414774894714 -0.7344937920570374
vn -0.06547307968139648 -0.7101754546165466 -0.7009736895561218
vn 0.2374853640794754 -0.7234293222427368 -0.6482674479484558
vn 0.5993052124977112 0.6778925657272339 -0.4257875084877014
vn 0.6084077954292297 0.7266228795051575 -0.31915387511253357
vn 0.3777594566345215 0.7036756873130798 -0.6017794013023376
vn -0.699349045753479 -0.03163110464811325 0.7140800952911377
vn -0.1276831477880478 -0.6829574108123779 0.7192122936248779
vn -0.6145473122596741 -0.39274755120277405 0.6841644644737244
vn -0.5047286748886108 -0.5474025011062622 0.6675324440002441
vn 0.32863885164260864 -0.7266958951950073 0.6032491326332092
vn -0.4031183421611786 -0.6579570174217224 -0.6360724568367004
vn -0.5137688517570496 0.5422996878623962 0.6647951602935791
vn -0.5482334494590759 -0.02660529315471649 -0.8359020352363586
vn -0.5464948415756226 0.048205360770225525 -0.8360739946365356
vn 0.5104854702949524 -0.7209417819976807 -0.46866562962532043
vn 0.5959646105766296 -0.6876579523086548 -0.4146718680858612
vn 0.13367678225040436 0.6935614943504333 -0.7078862190246582
vn 0.33440178632736206 0.7259673476219177 -0.6009549498558044
vn 0.007064030505716801 0.7346834540367126 -0.678373396396637
vn -0.6486918330192566 0.38026463985443115 0.659240186214447
vn 0.6798185110092163 -0.7086216807365417 -0.18895013630390167
vn -0.3411928713321686 0.7050754427909851 -0.6216559410095215
vn -0.5764123201370239 -0.43734440207481384 -0.6902742981910706
vn -0.5678166151046753 -0.5076683759689331 -0.6479638814926147
vn -0.51783686876297 0.4526202976703644 -0.7259337902069092
vn -0.5104745626449585 0.5697744488716125 -0.6440285444259644
vn 0.673255443572998 -0.7216710448265076 -0.16099095344543457
vn -0.7730469107627869 0.3564029037952423 0.5247622728347778
vn -0.5015532374382019 0.6887208223342896 0.5235532522201538
vn -0.3818408250808716 -0.7907072901725769 -0.478518009185791
vn -0.32986629009246826 0.8181200623512268 -0.47102850675582886
vn 0.45227593183517456 0.8632742166519165 -0.22406302392482758
vn 0.5080891847610474 -0.8352736830711365 0.21015068888664246
vn 0.3289455473423004 -0.887813150882721 -0.3218424320220947
vn 0.46484068036079407 -0.8832029104232788 -0.06225587800145149
vn 0.22518876194953918 -0.8666541576385498 0.4451972544193268
vn 0.2300880402326584 -0.8887639045715332 0.39643195271492004
vn -0.14989550411701202 -0.7947805523872375 0.5880946516990662
vn -0.824280858039856 -0.02149243652820587 0.565773069858551
vn -0.8746408820152283 0.10698124021291733 0.472819447517395
vn 0.2757877707481384 0.8600793480873108 0.42919063568115234
vn 0.22046345472335815 0.9108819365501404 -0.3488410711288452
vn -0.7397540211677551 -0.20568810403347015 -0.6406686902046204
vn -0.622458815574646 0.684253454208374 0.379923939704895
vn -0.7914921641349792 -0.37082239985466003 0.4858301877975464
vn -0.845800518989563 -0.273488849401474 0.45806685090065
vn -0.5274739861488342 -0.7864028811454773 -0.3214679956436157
vn 0.11006271094083786 0.8909188508987427 0.4406243562698364
vn -0.0037189132999628782 0.8457370400428772 0.5335869193077087
vn -0.6852625608444214 0.24004881083965302 -0.6875986456871033
vn 0.44619351625442505 0.8947446942329407 0.0185304656624794
vn 0.1405174732208252 -0.8981755971908569 -0.41657572984695435
vn 0.39108213782310486 0.8882157206535339 0.241096630692482
vn -0.026027679443359375 0.8928638100624084 -0.4495740830898285
vn 0.2071487009525299 0.9154320955276489 -0.3450701832771301
vn -0.13489340245723724 0.9052481055259705 -0.4029015600681305
vn 0.3990493714809418 -0.9121497273445129 -0.09350094944238663
vn -0.24100422859191895 0.788716197013855 0.5655472278594971
vn -0.3709876239299774 0.7727515697479248 0.514998197555542
vn -0.13510917127132416 0.8416181802749634 0.522899866104126
vn -0.48825258016586304 0.8166588544845581 -0.3076973855495453
vn -0.7196474075317383 -0.5708025097846985 -0.39533793926239014
vn -0.697079062461853 -0.6345551609992981 -0.33379730582237244
vn -0.7877339124679565 0.5031216144561768 0.3554488718509674
vn -0.649437665939331 0.6834794878959656 -0.33329638838768005
vn -0.6754352450370789 0.597247838973999 -0.432530015707016
vn -0.2631917893886566 -0.8301311135292053 0.491540789604187
vn -0.5106933116912842 -0.7047766447067261 0.492424875497818
vn -0.10345417261123657 -0.8668614029884338 -0.48769712448120117
vn -0.2011454999446869 -0.8721988201141357 -0.4458807706832886
vn 0.10922499001026154 -0.9060286283493042 -0.40887898206710815
vn -0.5566006302833557 0.8238126635551453 0.10737070441246033
vn -0.4828166365623474 -0.8623077273368835 -0.15268735587596893
vn -0.43147194385528564 0.8941311240196228 -0.11983928084373474
vn -0.1746719926595688 0.9729316234588623 -0.1513070911169052
vn -0.5164249539375305 0.8511290550231934 0.09425809234380722
vn 0.1797291338443756 -0.9836965203285217 0.006209892220795155
vn 0.01935204677283764 -0.9904360175132751 -0.13660882413387299
vn 0.12045202404260635 -0.9635382890701294 0.23892535269260406
vn -0.7612987756729126 0.2263258844614029 -0.6076189279556274
vn -0.8307197690010071 0.3670208752155304 -0.4185693562030792
vn -0.8511277437210083 0.4793764650821686 0.21396200358867645
vn 0.368551105260849 0.9235935211181641 0.10556969046592712
vn -0.7919475436210632 -0.18206322193145752 -0.5828139185905457
vn -0.8445999622344971 -0.05665545165538788 -0.5323918461799622
vn -0.8422546982765198 -0.38324761390686035 -0.3791152238845825
vn -0.21809247136116028 -0.9510408639907837 0.21899065375328064
vn -0.9554420113563538 0.1032487079501152 0.27653276920318604
vn -0.9618299007415771 0.239034503698349 0.133213609457016
vn -0.7730375528335571 0.6335787177085876 -0.03147760033607483
vn 0.06117134913802147 0.9980106949806213 0.015257812105119228
vn 0.00951449666172266 0.9993960857391357 0.03341994062066078
vn -0.7762194275856018 -0.6233540773391724 -0.09440912306308746
vn -0.23194772005081177 -0.9520959854125977 0.19928261637687683
vn -0.3588530421257019 0.9101453423500061 0.20702657103538513
vn -0.7729958295822144 0.6336401104927063 -0.03126732259988785
vn -0.21964815258979797 -0.970008373260498 -0.1041078269481659
vn -0.2232532799243927 -0.9695404767990112 -0.10074341297149658
vn -0.6587860584259033 -0.687248706817627 0.30608829855918884
vn -0.6176785230636597 -0.7731449007987976 0.14394479990005493
vn -0.6240459680557251 -0.7743131518363953 0.10490792989730835
vn -0.7313419580459595 -0.6040595769882202 0.3166245222091675
vn -0.9457650780677795 -0.24005334079265594 0.2188669592142105
vn -0.9118021726608276 -0.4018482565879822 0.08446746319532394
vn -0.9086179733276367 -0.41699302196502686 -0.023025132715702057
vn -0.9232632517814636 0.3090343177318573 -0.22821660339832306
vn -0.9752679467201233 -0.11679372936487198 0.18764741718769073
vn -0.9665535092353821 0.20145775377750397 -0.15871022641658783
vn -0.9365320205688477 -0.30419421195983887 -0.17428039014339447
vn -0.030748289078474045 0.9936571717262268 0.10816624015569687
vn -0.9786099195480347 0.007474359590560198 -0.2055889517068863
vn -0.20238183438777924 0.9561833143234253 0.21155382692813873
vn -0.9826948642730713 -0.04928921163082123 -0.17855346202850342
f 1//1 3//1 11//1 
f 3//2 4//2 12//2 
f 3//3 12//3 11//3 
f 4//4 5//4 13//4 
f 4//5 13//5 12//5 
f 5//6 6//6 14//6 
f 5//7 14//7 13//7 
f 6//8 7//8 15//8 
f 6//9 15//9 14//9 
f 7//10 8//10 16//10 
f 7//11 16//11 15//11 
f 8//12 9//12 17//12 
f 8//13 17//13 16//13 
f 9//14 10//14 18//14 
f 9//15 18//15 17//15 
f 10//16 2//16 19//16 
f 10//17 19//17 18//17 
f 3//18 1//18 20//18 
f 4//19 3//19 21//19 
f 3//20 20//20 21//20 
f 5//21 4//21 22//21 
f 4//22 21//22 22//22 
f 6//23 5//23 23//23 
f 5//24 22//24 23//24 
f 7//25 6//25 24//25 
f 6//26 23//26 24//26 
f 8//27 7//27 25//27 
f 7//28 24//28 25//28 
f 9//29 8//29 26//29 
f 8//30 25//30 26//30 
f 10//31 9//31 27//31 
f 9//32 26//32 27//32 
f 2//33 10//33 28//33 
f 10//34 27//34 28//34 
f 2//35 28//35 29//35 
f 19//36 2//36 30//36 
f 20//37 1//37 31//37 
f 2//38 29//38 30//38 
f 1//39 11//39 32//39 
f 1//40 32//40 33//40 
f 1//41 33//41 31//41 
f 11//42 12//42 34//42 
f 14//43 15//43 35//43 
f 15//44 16//44 36//44 
f 15//45 36//45 35//45 
f 16//46 17//46 37//46 
f 16//47 37//47 36//47 
f 17//48 18//48 38//48 
f 17//49 38//49 37//49 
f 18//50 19//50 38//50 
f 19//51 30//51 39//51 
f 20//52 31//52 40//52 
f 30//53 29//53 41//53 
f 32//54 11//54 42//54 
f 11//55 34//55 42//55 
f 22//56 21//56 43//56 
f 23//57 22//57 44//57 
f 22//58 43//58 44//58 
f 24//59 23//59 45//59 
f 23//60 44//60 45//60 
f 25//61 24//61 46//61 
f 24//62 45//62 46//62 
f 26//63 25//63 46//63 
f 27//64 26//64 47//64 
f 28//65 27//65 48//65 
f 27//66 47//66 48//66 
f 29//67 28//67 49//67 
f 28//68 48//68 49//68 
f 12//69 13//69 50//69 
f 12//70 50//70 34//70 
f 13//71 14//71 51//71 
f 50//72 13//72 51//72 
f 14//73 35//73 51//73 
f 21//74 20//74 52//74 
f 43//75 21//75 52//75 
f 20//76 40//76 52//76 
f 38//77 19//77 39//77 
f 40//78 31//78 53//78 
f 39//79 30//79 54//79 
f 30//80 41//80 54//80 
f 32//81 42//81 55//81 
f 32//82 55//82 56//82 
f 32//83 56//83 33//83 
f 29//84 49//84 57//84 
f 47//85 26//85 46//85 
f 31//86 33//86 58//86 
f 31//87 58//87 53//87 
f 29//88 57//88 41//88 
f 35//89 36//89 59//89 
f 41//90 57//90 60//90 
f 40//91 53//91 61//91 
f 39//92 54//92 62//92 
f 54//93 41//93 63//93 
f 38//94 39//94 64//94 
f 55//95 42//95 65//95 
f 57//96 49//96 66//96 
f 47//97 46//97 67//97 
f 45//98 44//98 68//98 
f 46//99 45//99 69//99 
f 67//100 46//100 69//100 
f 45//101 68//101 69//101 
f 48//102 47//102 70//102 
f 47//103 67//103 70//103 
f 34//104 50//104 71//104 
f 49//105 48//105 72//105 
f 66//106 49//106 72//106 
f 48//107 70//107 72//107 
f 36//108 37//108 73//108 
f 36//109 73//109 59//109 
f 37//110 38//110 73//110 
f 42//111 34//111 74//111 
f 65//112 42//112 74//112 
f 34//113 71//113 74//113 
f 44//114 43//114 75//114 
f 44//115 75//115 68//115 
f 43//116 52//116 75//116 
f 41//117 60//117 63//117 
f 39//118 62//118 64//118 
f 54//119 63//119 76//119 
f 54//120 76//120 62//120 
f 38//121 64//121 73//121 
f 55//122 65//122 77//122 
f 57//123 66//123 78//123 
f 33//124 56//124 79//124 
f 33//125 79//125 58//125 
f 71//126 50//126 80//126 
f 50//127 51//127 80//127 
f 52//128 40//128 81//128 
f 75//129 52//129 81//129 
f 40//130 61//130 81//130 
f 60//131 57//131 78//131 
f 51//132 35//132 80//132 
f 61//133 53//133 82//133 
f 56//134 55//134 83//134 
f 55//135 77//135 83//135 
f 53//136 58//136 84//136 
f 53//137 84//137 82//137 
f 35//138 59//138 80//138 
f 60//139 78//139 85//139 
f 78//140 66//140 86//140 
f 77//141 65//141 87//141 
f 61//142 82//142 88//142 
f 68//143 75//143 89//143 
f 59//144 73//144 90//144 
f 71//145 80//145 91//145 
f 80//146 59//146 90//146 
f 73//147 64//147 92//147 
f 73//148 92//148 90//148 
f 64//149 62//149 92//149 
f 63//150 60//150 93//150 
f 60//151 85//151 93//151 
f 70//152 67//152 94//152 
f 89//153 75//153 81//153 
f 79//154 56//154 83//154 
f 78//155 86//155 95//155 
f 76//156 63//156 96//156 
f 63//157 93//157 96//157 
f 77//158 87//158 97//158 
f 70//159 94//159 98//159 
f 70//160 98//160 72//160 
f 58//161 79//161 84//161 
f 68//162 89//162 69//162 
f 71//163 91//163 74//163 
f 67//164 69//164 94//164 
f 81//165 61//165 99//165 
f 89//166 81//166 99//166 
f 61//167 88//167 99//167 
f 80//168 90//168 91//168 
f 66//169 72//169 100//169 
f 86//170 66//170 100//170 
f 72//171 98//171 100//171 
f 88//172 82//172 101//172 
f 83//173 77//173 102//173 
f 77//174 97//174 102//174 
f 78//175 95//175 85//175 
f 101//176 82//176 103//176 
f 82//177 84//177 103//177 
f 92//178 62//178 104//178 
f 62//179 76//179 104//179 
f 65//180 74//180 105//180 
f 87//181 65//181 105//181 
f 74//182 91//182 105//182 
f 95//183 86//183 101//183 
f 97//184 87//184 106//184 
f 88//185 101//185 107//185 
f 99//186 88//186 107//186 
f 101//187 86//187 107//187 
f 91//188 90//188 108//188 
f 105//189 91//189 108//189 
f 90//190 92//190 108//190 
f 84//191 79//191 109//191 
f 84//192 109//192 103//192 
f 85//193 95//193 110//193 
f 69//194 89//194 94//194 
f 79//195 83//195 111//195 
f 109//196 79//196 111//196 
f 83//197 102//197 111//197 
f 92//198 104//198 108//198 
f 93//199 85//199 112//199 
f 85//200 110//200 112//200 
f 95//201 101//201 110//201 
f 94//202 89//202 99//202 
f 94//203 99//203 107//203 
f 102//204 97//204 113//204 
f 108//205 104//205 106//205 
f 107//206 86//206 100//206 
f 110//207 101//207 103//207 
f 87//208 105//208 108//208 
f 87//209 108//209 106//209 
f 104//210 76//210 113//210 
f 104//211 113//211 106//211 
f 113//212 97//212 106//212 
f 113//213 76//213 96//213 
f 96//214 93//214 114//214 
f 96//215 114//215 113//215 
f 102//216 113//216 114//216 
f 103//217 109//217 110//217 
f 93//218 112//218 114//218 
f 112//219 110//219 109//219 
f 102//220 114//220 111//220 
f 98//221 94//221 107//221 
f 112//222 109//222 111//222 
f 100//223 98//223 107//223 
f 114//224 112//224 111//224 
