# Created by FreeCAD <http://www.freecadweb.org>
v -0.000000 0.000000 -5.000000 204 204 204
v -0.000000 0.000000 5.000000 204 204 204
v -1.702554 0.000000 -4.701203 204 204 204
v -3.154327 0.000000 -3.879461 204 204 204
v -4.262380 0.000000 -2.613832 204 204 204
v -4.888000 0.000000 -1.052359 204 204 204
v -4.947200 0.000000 0.724717 204 204 204
v -4.392085 0.000000 2.389474 204 204 204
v -3.228088 0.000000 3.818304 204 204 204
v -1.757084 0.000000 4.681096 204 204 204
v -0.829400 1.406242 -4.725947 204 204 204
v -2.420963 1.371421 -4.154292 204 204 204
v -3.719997 1.339742 -3.060508 204 204 204
v -4.556219 1.310252 -1.588743 204 204 204
v -4.829248 1.283740 0.174287 204 204 204
v -4.454430 1.258031 1.890877 204 204 204
v -3.430578 1.234098 3.421716 204 204 204
v -2.039473 1.209578 4.401985 204 204 204
v -0.316254 1.186425 4.846894 204 204 204
v -0.829400 -1.406242 -4.725947 204 204 204
v -2.420963 -1.371421 -4.154292 204 204 204
v -3.719997 -1.339742 -3.060508 204 204 204
v -4.556219 -1.310252 -1.588743 204 204 204
v -4.829248 -1.283740 0.174287 204 204 204
v -4.454430 -1.258031 1.890877 204 204 204
v -3.430578 -1.234098 3.421716 204 204 204
v -2.039473 -1.209578 4.401985 204 204 204
v -0.316254 -1.186425 4.846894 204 204 204
v 1.369870 -0.972873 4.709243 204 204 204
v 1.196487 0.933734 4.764091 204 204 204
v 0.806270 -1.397811 -4.732447 204 204 204
v 0.964649 1.480486 -4.677351 204 204 204
v 1.763826 0.138453 -4.676510 204 204 204
v -1.474672 2.700443 -3.941186 204 204 204
v -4.212733 2.622433 -0.612962 204 204 204
v -4.096743 2.623865 1.154137 204 204 204
v -3.240921 2.602491 2.779114 204 204 204
v -1.933021 2.553863 3.839428 204 204 204
v -0.254221 2.489012 4.328994 204 204 204
v 1.235989 2.208187 4.312336 204 204 204
v -0.001513 -2.865349 -4.097533 204 204 204
v 2.609978 0.114707 4.263198 204 204 204
v 0.315034 2.800992 -4.129794 204 204 204
v -2.696238 -2.827367 -3.120304 204 204 204
v -3.741509 -2.799210 -1.779193 204 204 204
v -4.176045 -2.748901 -0.064734 204 204 204
v -3.894167 -2.674895 1.637192 204 204 204
v -2.388145 -2.710555 3.456828 204 204 204
v -0.740791 -2.687977 4.150423 204 204 204
v 0.953038 -2.471618 4.240616 204 204 204
v -2.922752 2.692451 -3.034507 204 204 204
v -3.755922 2.673980 -1.934654 204 204 204
v -1.434391 -2.855741 -3.845422 204 204 204
v 2.636265 1.449559 3.993606 204 204 204
v 1.797926 -2.650722 -3.839419 204 204 204
v 1.885948 2.534724 -3.875355 204 204 204
v 2.599853 -1.916503 3.816776 204 204 204
v 2.748792 -1.121066 -4.023351 204 204 204
v 2.681258 1.204191 -4.044846 204 204 204
v -3.159986 3.869465 0.204284 204 204 204
v -0.821066 3.664589 3.301006 204 204 204
v 0.688880 3.473142 3.530259 204 204 204
v 3.752014 -0.727254 3.223894 204 204 204
v 0.898530 -3.846073 -3.066002 204 204 204
v -2.502197 -3.841398 1.995664 204 204 204
v -3.098535 -3.866220 -0.671883 204 204 204
v -3.015702 -3.926336 0.699592 204 204 204
v -0.967737 -3.926117 2.940933 204 204 204
v -1.661599 3.921584 -2.619210 204 204 204
v 0.704914 -3.755026 3.225349 204 204 204
v 2.387322 -3.233106 2.974511 204 204 204
v 1.134701 3.869397 -2.956387 204 204 204
v -2.498821 3.888298 1.907102 204 204 204
v -0.301364 3.976522 -3.016032 204 204 204
v -2.208460 -3.955837 -2.115198 204 204 204
v -1.009661 -3.952165 -2.891536 204 204 204
v 3.712958 -2.104680 2.604662 204 204 204
v 2.333109 2.905911 3.333509 204 204 204
v 3.602469 -0.013204 -3.467282 204 204 204
v -2.817753 3.981658 -1.098488 204 204 204
v 3.827846 0.643106 3.151826 204 204 204
v 2.809981 3.298967 -2.494158 204 204 204
v 3.598321 2.011472 -2.829499 204 204 204
v 3.224056 -2.365109 -3.001953 204 204 204
v 2.351633 -3.691195 -2.417624 204 204 204
v 0.207225 4.420734 2.326837 204 204 204
v 3.599429 2.196160 2.687191 204 204 204
v -1.838492 4.648992 -0.082601 204 204 204
v -1.508851 -4.724129 -0.637164 204 204 204
v 1.884355 4.424111 -1.369835 204 204 204
v 0.178952 -4.676334 1.760647 204 204 204
v 0.094951 -4.664569 -1.797992 204 204 204
v 1.919283 -4.287358 1.713158 204 204 204
v 4.097857 -1.307101 -2.549325 204 204 204
v -1.220944 4.552891 -1.667478 204 204 204
v 1.914999 3.989055 2.328135 204 204 204
v -1.535360 -4.544939 1.409328 204 204 204
v 3.419823 -3.303443 1.546633 204 204 204
v 3.260516 3.330646 1.809927 204 204 204
v 3.975486 -2.661997 -1.452335 204 204 204
v 3.408134 3.575960 -0.772744 204 204 204
v 4.642306 -0.159587 1.850278 204 204 204
v 0.538754 4.724395 -1.545910 204 204 204
v 4.226982 2.404430 -1.162469 204 204 204
v 1.588841 -4.564153 -1.282221 204 204 204
v 4.733352 -1.250176 -1.016088 204 204 204
v 2.293626 4.422202 0.428270 204 204 204
v 4.565313 1.364652 1.515137 204 204 204
v 0.111627 -4.997709 -0.102196 204 204 204
v 4.491007 0.668732 -2.093718 204 204 204
v 4.566064 -1.853765 0.845347 204 204 204
v 2.747654 -4.176572 0.081499 204 204 204
v 4.390428 -2.390089 0.107788 204 204 204
v 4.988761 0.289195 0.169201 204 204 204
v 0.407430 4.981779 0.126023 204 204 204
vn -0.172162 0.089636 -0.980982
vn -0.490651 0.088662 -0.866834
vn -0.335461 0.192064 -0.922268
vn -0.749690 0.084675 -0.656350
vn -0.635110 0.189565 -0.748799
vn -0.925099 0.082517 -0.370650
vn -0.855942 0.185617 -0.482607
vn -0.996453 0.077322 -0.033195
vn -0.971478 0.185550 -0.147656
vn -0.945751 0.078119 0.315361
vn -0.960578 0.179342 0.212429
vn -0.773082 0.075542 0.629792
vn -0.816798 0.177131 0.549058
vn -0.504280 0.080662 0.859765
vn -0.566008 0.166592 0.807392
vn -0.178019 0.079123 0.980841
vn -0.244566 0.163445 0.955758
vn -0.172162 -0.089636 -0.980982
vn -0.490651 -0.088662 -0.866834
vn -0.335461 -0.192064 -0.922268
vn -0.749690 -0.084675 -0.656350
vn -0.635110 -0.189565 -0.748799
vn -0.925099 -0.082518 -0.370650
vn -0.855942 -0.185617 -0.482607
vn -0.996453 -0.077322 -0.033195
vn -0.971478 -0.185550 -0.147656
vn -0.945751 -0.078119 0.315361
vn -0.960578 -0.179342 0.212429
vn -0.773082 -0.075542 0.629792
vn -0.816798 -0.177131 0.549058
vn -0.504280 -0.080662 0.859765
vn -0.566008 -0.166592 0.807392
vn -0.178019 -0.079123 0.980841
vn -0.244566 -0.163445 0.955758
vn 0.099693 -0.153444 0.983116
vn 0.078717 0.148201 0.985820
vn -0.002924 -0.189622 -0.981853
vn 0.200875 -0.009912 0.979567
vn 0.018185 0.201575 -0.979304
vn 0.171734 0.101653 -0.979885
vn 0.185900 -0.080215 -0.979289
vn -0.321357 0.368675 -0.872243
vn -0.927986 0.345916 -0.138509
vn -0.914124 0.349884 0.204839
vn -0.893301 0.445666 0.058274
vn -0.775016 0.353427 0.523870
vn -0.793699 0.436432 0.423756
vn -0.532618 0.362274 0.764902
vn -0.563981 0.413768 0.714648
vn -0.227683 0.369102 0.901068
vn -0.243753 0.390759 0.887633
vn 0.106359 0.329275 0.938225
vn 0.079161 0.365045 0.927618
vn -0.001606 -0.396326 -0.918109
vn 0.335781 0.003439 0.941934
vn 0.008972 0.386781 -0.922128
vn -0.118581 0.470939 -0.874160
vn -0.599989 -0.384708 -0.701436
vn -0.806246 -0.383541 -0.450405
vn -0.703887 -0.462742 -0.538899
vn -0.912947 -0.384892 -0.135594
vn -0.869155 -0.449082 -0.207112
vn -0.897884 -0.391197 0.201912
vn -0.890339 -0.423998 0.165898
vn -0.761369 -0.393338 0.515366
vn -0.533512 -0.358461 0.766075
vn -0.229176 -0.355505 0.906143
vn -0.342883 -0.442225 0.828775
vn 0.117870 -0.326066 0.937970
vn 0.005642 -0.422080 0.906541
vn -0.603780 0.369427 -0.706380
vn -0.473606 0.457858 -0.752372
vn -0.813577 0.362032 -0.455001
vn -0.721108 0.435359 -0.538949
vn -0.857356 0.432249 -0.279467
vn -0.318636 -0.391425 -0.863283
vn -0.450447 -0.458773 -0.765914
vn -0.156498 -0.464252 -0.871767
vn 0.363799 0.301170 0.881446
vn 0.416138 0.172131 0.892861
vn 0.180105 -0.472409 -0.862782
vn 0.217668 0.463295 -0.859057
vn 0.345801 -0.366286 0.863861
vn -0.684477 -0.470013 0.557297
vn 0.360518 -0.191473 -0.912888
vn 0.364833 -0.331411 -0.870094
vn 0.368168 0.218677 -0.903678
vn 0.372736 0.333125 -0.866081
vn 0.476243 -0.191016 0.858316
vn -0.779254 0.624659 0.050643
vn -0.205901 0.586025 0.783696
vn 0.114291 0.557721 0.822122
vn -0.033164 0.648800 0.760236
vn 0.588202 -0.176393 0.789243
vn 0.183388 -0.627560 -0.756662
vn -0.626589 -0.591896 0.506997
vn -0.754203 -0.633561 -0.172564
vn -0.751604 -0.641770 0.152389
vn -0.656596 -0.689673 0.305342
vn -0.716304 -0.697674 0.012681
vn -0.290393 -0.640903 0.710574
vn -0.397085 -0.710543 0.580907
vn -0.410172 0.640291 -0.649451
vn 0.038231 -0.624498 0.780090
vn -0.051384 -0.693023 0.719082
vn 0.376069 -0.541647 0.751792
vn 0.301551 -0.626714 0.718538
vn 0.227243 0.635801 -0.737643
vn -0.677388 0.638596 0.365158
vn -0.670814 0.697227 0.252750
vn -0.455489 0.664590 0.592326
vn -0.115652 0.650535 -0.750619
vn 0.081941 0.707771 -0.701674
vn -0.226050 0.699413 -0.678028
vn -0.598196 -0.661469 -0.452351
vn -0.613269 -0.715902 -0.333744
vn -0.373612 -0.686978 -0.623277
vn -0.386155 -0.700970 -0.599604
vn -0.403535 0.693371 0.596989
vn 0.672838 -0.319122 0.667421
vn 0.598857 -0.497933 0.627243
vn 0.421257 0.445700 0.789869
vn 0.550561 0.020686 -0.834539
vn 0.549265 -0.003810 -0.835640
vn -0.714666 0.687555 -0.128529
vn -0.719001 0.658319 -0.222831
vn 0.633186 0.141227 0.761006
vn 0.673697 0.001584 0.739006
vn 0.293874 0.591382 0.750936
vn 0.400240 0.661768 -0.633933
vn -0.131601 -0.679183 -0.722075
vn 0.562787 0.426591 -0.708019
vn 0.556321 0.511259 -0.655073
vn -0.581451 0.691374 -0.428855
vn 0.521193 -0.413740 -0.746443
vn -0.546401 0.710475 -0.443476
vn 0.357441 -0.681868 -0.638195
vn 0.490818 -0.600901 -0.630886
vn -0.021290 -0.733776 -0.679058
vn 0.006064 0.786833 0.617136
vn 0.590183 0.431962 0.681978
vn 0.677575 0.300482 0.671269
vn -0.517089 0.853660 -0.062321
vn -0.458381 -0.858650 -0.229363
vn 0.397599 0.791283 -0.464528
vn -0.004205 -0.845782 0.533513
vn -0.003047 -0.839283 -0.543686
vn 0.322128 -0.781786 0.533896
vn 0.204966 -0.859990 0.467339
vn -0.237847 0.872730 0.426347
vn -0.472093 0.864258 0.173744
vn 0.689185 -0.284012 -0.666604
vn 0.708481 -0.207334 -0.674587
vn -0.424589 0.832591 -0.355691
vn -0.176377 0.855924 -0.486091
vn -0.394313 0.895145 -0.207923
vn 0.319596 0.707955 0.629807
vn 0.203610 0.807174 0.554088
vn -0.326377 -0.828206 0.455581
vn -0.154410 -0.894863 0.418781
vn -0.470618 -0.848483 0.242065
vn -0.230730 -0.903747 -0.360561
vn 0.706091 0.214071 -0.674989
vn 0.639874 -0.590517 0.491783
vn 0.529865 -0.737089 0.419455
vn 0.604091 0.592535 0.532894
vn 0.528521 0.678090 0.510745
vn 0.771504 -0.440985 -0.458600
vn -0.474735 -0.880073 -0.009904
vn -0.227066 0.932422 0.281122
vn 0.552974 0.770873 -0.316187
vn 0.842452 -0.018301 0.538461
vn 0.249723 0.871230 -0.422608
vn 0.085069 0.867582 -0.489965
vn 0.711240 0.612106 -0.345634
vn 0.728995 0.551853 -0.404999
vn -0.227055 -0.904851 -0.360125
vn 0.291603 -0.842916 -0.452173
vn 0.208635 -0.876606 -0.433628
vn 0.652127 -0.620779 -0.435159
vn 0.857254 -0.231146 0.460094
vn 0.867025 -0.358490 -0.346054
vn -0.414526 -0.907020 0.074049
vn 0.517595 0.847601 -0.116911
vn 0.876518 0.145187 0.458952
vn 0.828186 0.268918 0.491722
vn -0.101843 -0.976332 -0.190799
vn 0.778648 0.189972 -0.598011
vn 0.236415 0.936073 0.260529
vn 0.849329 -0.047778 -0.525697
vn 0.880899 -0.270162 0.388625
vn 0.219488 -0.962711 0.158153
vn 0.551593 -0.803051 0.225511
vn 0.810688 0.489988 0.320464
vn -0.192514 -0.977768 0.083119
vn -0.058579 0.902899 -0.425842
vn 0.889432 -0.427367 -0.162075
vn 0.131769 -0.972443 -0.192332
vn 0.507864 0.812422 0.286435
vn 0.552112 -0.797747 -0.242428
vn 0.848754 0.344394 -0.401259
vn -0.110438 -0.978739 0.172842
vn 0.920779 -0.096035 -0.378078
vn 0.812024 -0.485040 0.324580
vn 0.672387 0.732281 0.107987
vn 0.618251 -0.747430 -0.243136
vn 0.969104 0.098657 0.226061
vn 0.835877 0.539904 0.099059
vn 0.291100 -0.953079 0.083075
vn 0.734431 -0.674206 -0.077830
vn -0.163500 0.959428 0.229710
vn -0.135415 0.984387 -0.112454
vn 0.976403 -0.140978 0.163592
vn 0.236074 0.936264 0.260153
vn 0.296093 -0.954954 0.019803
vn 0.293476 0.953700 -0.065786
vn 0.232143 0.963934 -0.130158
vn 0.831279 0.545501 0.106794
vn 0.937308 0.348101 0.016742
vn 0.956404 0.237024 -0.170618
vn 0.976753 0.002983 -0.214347
vn -0.084956 0.983759 -0.158117
vn 0.972864 -0.218972 0.074751
vn 0.786178 -0.617953 0.007582
vn 0.973576 -0.215698 -0.074992
vn 0.698977 -0.647226 0.304188
f 1//1 3//1 11//1
f 3//2 4//2 12//2
f 3//3 12//3 11//3
f 4//4 5//4 13//4
f 4//5 13//5 12//5
f 5//6 6//6 14//6
f 5//7 14//7 13//7
f 6//8 7//8 15//8
f 6//9 15//9 14//9
f 7//10 8//10 16//10
f 7//11 16//11 15//11
f 8//12 9//12 17//12
f 8//13 17//13 16//13
f 9//14 10//14 18//14
f 9//15 18//15 17//15
f 10//16 2//16 19//16
f 10//17 19//17 18//17
f 3//18 1//18 20//18
f 4//19 3//19 21//19
f 3//20 20//20 21//20
f 5//21 4//21 22//21
f 4//22 21//22 22//22
f 6//23 5//23 23//23
f 5//24 22//24 23//24
f 7//25 6//25 24//25
f 6//26 23//26 24//26
f 8//27 7//27 25//27
f 7//28 24//28 25//28
f 9//29 8//29 26//29
f 8//30 25//30 26//30
f 10//31 9//31 27//31
f 9//32 26//32 27//32
f 2//33 10//33 28//33
f 10//34 27//34 28//34
f 2//35 28//35 29//35
f 19//36 2//36 30//36
f 20//37 1//37 31//37
f 2//38 29//38 30//38
f 1//39 11//39 32//39
f 1//40 32//40 33//40
f 1//41 33//41 31//41
f 11//42 12//42 34//42
f 14//43 15//43 35//43
f 15//44 16//44 36//44
f 15//45 36//45 35//45
f 16//46 17//46 37//46
f 16//47 37//47 36//47
f 17//48 18//48 38//48
f 17//49 38//49 37//49
f 18//50 19//50 39//50
f 18//51 39//51 38//51
f 19//52 30//52 40//52
f 19//53 40//53 39//53
f 20//54 31//54 41//54
f 30//55 29//55 42//55
f 32//56 11//56 43//56
f 11//57 34//57 43//57
f 22//58 21//58 44//58
f 23//59 22//59 45//59
f 22//60 44//60 45//60
f 24//61 23//61 46//61
f 23//62 45//62 46//62
f 25//63 24//63 47//63
f 24//64 46//64 47//64
f 26//65 25//65 47//65
f 27//66 26//66 48//66
f 28//67 27//67 49//67
f 27//68 48//68 49//68
f 29//69 28//69 50//69
f 28//70 49//70 50//70
f 12//71 13//71 51//71
f 12//72 51//72 34//72
f 13//73 14//73 52//73
f 51//74 13//74 52//74
f 14//75 35//75 52//75
f 21//76 20//76 53//76
f 44//77 21//77 53//77
f 20//78 41//78 53//78
f 40//79 30//79 54//79
f 30//80 42//80 54//80
f 41//81 31//81 55//81
f 32//82 43//82 56//82
f 29//83 50//83 57//83
f 48//84 26//84 47//84
f 31//85 33//85 58//85
f 31//86 58//86 55//86
f 33//87 32//87 59//87
f 32//88 56//88 59//88
f 42//89 29//89 57//89
f 35//90 36//90 60//90
f 38//91 39//91 61//91
f 39//92 40//92 62//92
f 39//93 62//93 61//93
f 42//94 57//94 63//94
f 41//95 55//95 64//95
f 48//96 47//96 65//96
f 46//97 45//97 66//97
f 47//98 46//98 67//98
f 65//99 47//99 67//99
f 46//100 66//100 67//100
f 49//101 48//101 68//101
f 48//102 65//102 68//102
f 34//103 51//103 69//103
f 50//104 49//104 70//104
f 49//105 68//105 70//105
f 57//106 50//106 71//106
f 50//107 70//107 71//107
f 56//108 43//108 72//108
f 36//109 37//109 73//109
f 36//110 73//110 60//110
f 37//111 38//111 73//111
f 43//112 34//112 74//112
f 72//113 43//113 74//113
f 34//114 69//114 74//114
f 45//115 44//115 75//115
f 45//116 75//116 66//116
f 44//117 53//117 76//117
f 44//118 76//118 75//118
f 38//119 61//119 73//119
f 63//120 57//120 77//120
f 57//121 71//121 77//121
f 40//122 54//122 78//122
f 33//123 59//123 79//123
f 33//124 79//124 58//124
f 35//125 60//125 80//125
f 35//126 80//126 52//126
f 54//127 42//127 81//127
f 42//128 63//128 81//128
f 40//129 78//129 62//129
f 56//130 72//130 82//130
f 53//131 41//131 76//131
f 59//132 56//132 83//132
f 56//133 82//133 83//133
f 51//134 52//134 80//134
f 55//135 58//135 84//135
f 51//136 80//136 69//136
f 64//137 55//137 85//137
f 55//138 84//138 85//138
f 76//139 41//139 64//139
f 61//140 62//140 86//140
f 78//141 54//141 87//141
f 54//142 81//142 87//142
f 80//143 60//143 88//143
f 66//144 75//144 89//144
f 82//145 72//145 90//145
f 70//146 68//146 91//146
f 76//147 64//147 92//147
f 71//148 70//148 93//148
f 70//149 91//149 93//149
f 73//150 61//150 86//150
f 60//151 73//151 88//151
f 84//152 58//152 94//152
f 58//153 79//153 94//153
f 69//154 80//154 95//154
f 74//155 69//155 95//155
f 80//156 88//156 95//156
f 62//157 78//157 96//157
f 62//158 96//158 86//158
f 68//159 65//159 97//159
f 91//160 68//160 97//160
f 65//161 67//161 97//161
f 75//162 76//162 89//162
f 79//163 59//163 83//163
f 77//164 71//164 98//164
f 71//165 93//165 98//165
f 78//166 87//166 99//166
f 78//167 99//167 96//167
f 84//168 94//168 100//168
f 66//169 89//169 67//169
f 88//170 73//170 86//170
f 82//171 90//171 101//171
f 81//172 63//172 102//172
f 90//173 72//173 103//173
f 72//174 74//174 103//174
f 82//175 101//175 104//175
f 82//176 104//176 83//176
f 89//177 76//177 92//177
f 64//178 85//178 105//178
f 64//179 105//179 92//179
f 84//180 100//180 85//180
f 63//181 77//181 102//181
f 100//182 94//182 106//182
f 67//183 89//183 97//183
f 101//184 90//184 107//184
f 81//185 102//185 108//185
f 81//186 108//186 87//186
f 89//187 92//187 109//187
f 79//188 83//188 110//188
f 86//189 96//189 107//189
f 94//190 79//190 110//190
f 102//191 77//191 111//191
f 93//192 91//192 109//192
f 98//193 93//193 112//193
f 99//194 87//194 108//194
f 97//195 89//195 109//195
f 74//196 95//196 103//196
f 100//197 106//197 113//197
f 109//198 92//198 105//198
f 107//199 96//199 99//199
f 105//200 85//200 112//200
f 110//201 83//201 104//201
f 91//202 97//202 109//202
f 94//203 110//203 106//203
f 111//204 77//204 98//204
f 101//205 107//205 99//205
f 85//206 100//206 112//206
f 108//207 102//207 114//207
f 101//208 99//208 108//208
f 93//209 109//209 112//209
f 100//210 113//210 112//210
f 88//211 86//211 115//211
f 88//212 115//212 95//212
f 114//213 102//213 111//213
f 115//214 86//214 107//214
f 112//215 109//215 105//215
f 107//216 90//216 115//216
f 90//217 103//217 115//217
f 104//218 101//218 108//218
f 108//219 114//219 104//219
f 110//220 104//220 114//220
f 110//221 114//221 106//221
f 115//222 103//222 95//222
f 113//223 106//223 114//223
f 111//224 98//224 112//224
f 114//225 111//225 113//225
f 111//226 112//226 113//226
