# Created by FreeCAD <http://www.freecadweb.org>
v 0.000000 -0.000000 -5.000000 204 204 204
v 0.000000 -0.000000 5.000000 204 204 204
v 2.500453 -0.000000 -4.329865 204 204 204
v 4.330650 -0.000000 -2.499093 204 204 204
v 5.000000 -0.000000 -0.000000 204 204 204
v 4.329865 -0.000000 2.500453 204 204 204
v 2.499093 -0.000000 4.330650 204 204 204
v 1.181103 -2.045299 -4.407012 204 204 204
v 3.457141 -1.946503 -3.042910 204 204 204
v 4.589536 -1.858976 -0.693082 204 204 204
v 4.281799 -1.778456 1.871709 204 204 204
v 2.670868 -1.702867 3.868683 204 204 204
v 0.264134 -1.631268 4.719025 204 204 204
v 1.181103 2.045299 -4.407012 204 204 204
v 3.457141 1.946503 -3.042910 204 204 204
v 4.589536 1.858976 -0.693082 204 204 204
v 4.281799 1.778456 1.871709 204 204 204
v 2.670868 1.702867 3.868683 204 204 204
v 0.264134 1.631268 4.719025 204 204 204
v -1.862176 -1.078878 4.513128 204 204 204
v -1.209132 1.982107 -4.428234 204 204 204
v -1.512415 0.641345 4.722423 204 204 204
v -1.209132 -1.982107 -4.428234 204 204 204
v -2.383542 0.156304 -4.392527 204 204 204
v 1.817500 -3.751596 -2.760836 204 204 204
v 2.673856 -3.549694 2.291323 204 204 204
v 0.464462 -3.483603 3.556513 204 204 204
v -1.659241 -2.920138 3.704013 204 204 204
v -0.069647 3.746241 -3.310714 204 204 204
v -0.536347 -3.746748 -3.267141 204 204 204
v 3.103035 3.677768 -1.358380 204 204 204
v 3.245436 3.607083 1.206689 204 204 204
v 1.192361 3.715814 3.125860 204 204 204
v 1.767839 3.787605 -2.743865 204 204 204
v -3.519949 -1.746606 3.091816 204 204 204
v -2.368155 3.344377 -2.864784 204 204 204
v -2.717052 -2.980480 -2.955396 204 204 204
v -3.254431 -0.056183 3.795461 204 204 204
v -1.220789 3.275737 3.574804 204 204 204
v -3.518147 1.547183 -3.198260 204 204 204
v 3.103035 -3.677768 -1.358380 204 204 204
v 3.418040 -3.611503 0.523497 204 204 204
v -3.767010 -0.873885 -3.169537 204 204 204
v 1.567993 -4.746821 -0.095318 204 204 204
v -1.086105 4.681695 -1.379171 204 204 204
v -0.527880 4.660868 1.731372 204 204 204
v -1.767703 -4.467724 -1.383715 204 204 204
v 1.650134 4.683531 0.584460 204 204 204
v -2.972492 2.676859 2.999787 204 204 204
v -1.035308 -4.439671 2.053646 204 204 204
v -3.120877 -3.433494 1.863128 204 204 204
v 0.011087 -4.861307 -1.169434 204 204 204
v 0.710650 -4.720387 1.487590 204 204 204
v -4.543095 -1.820168 1.023366 204 204 204
v -4.522404 -0.249526 2.117923 204 204 204
v -3.717566 -3.241126 -0.821463 204 204 204
v -3.959753 2.771384 -1.280541 204 204 204
v 1.092341 4.560615 -1.734239 204 204 204
v -0.582445 4.965106 0.092123 204 204 204
v -0.383512 -4.960564 0.495705 204 204 204
v -4.670430 0.394361 -1.741139 204 204 204
v -2.738757 3.773361 1.805812 204 204 204
v -4.263875 2.285154 1.263897 204 204 204
v -2.896097 4.075202 0.073188 204 204 204
vn 0.256691 -0.129456 -0.957784
vn 0.702193 -0.118997 -0.701972
vn 0.500914 -0.292396 -0.814611
vn 0.959428 -0.116036 -0.256970
vn 0.869816 -0.276102 -0.408885
vn 0.959299 -0.116820 0.257097
vn 0.958406 -0.257505 0.123079
vn 0.701914 -0.119676 0.702135
vn 0.751571 -0.237837 0.615284
vn 0.256736 -0.123534 0.958554
vn 0.319354 -0.217974 0.922226
vn 0.256691 0.129456 -0.957784
vn 0.702193 0.118997 -0.701972
vn 0.500914 0.292396 -0.814611
vn 0.959428 0.116036 -0.256970
vn 0.869816 0.276102 -0.408885
vn 0.959299 0.116820 0.257097
vn 0.958406 0.257505 0.123079
vn 0.701914 0.119676 0.702135
vn 0.751571 0.237837 0.615284
vn 0.256736 0.123534 0.958554
vn 0.319354 0.217974 0.922226
vn -0.143531 -0.190512 0.971135
vn 0.001184 0.277829 -0.960630
vn -0.101074 0.184747 0.977575
vn -0.210956 -0.075680 0.974561
vn 0.001184 -0.277829 -0.960630
vn -0.236543 0.133330 -0.962430
vn -0.252649 -0.122729 -0.959743
vn 0.454174 -0.525021 -0.719777
vn 0.674290 -0.478968 0.562070
vn 0.277629 -0.488960 0.826946
vn 0.384257 -0.599232 0.702330
vn -0.193363 -0.412497 0.890200
vn -0.083930 -0.536198 0.839909
vn -0.006747 0.538226 -0.842773
vn -0.007176 -0.551558 -0.834106
vn 0.157695 -0.654534 -0.739403
vn 0.782821 0.508739 -0.358296
vn 0.844961 0.521703 0.117762
vn 0.778661 0.626908 -0.025952
vn 0.636842 0.555401 0.534754
vn 0.274405 0.503807 0.819073
vn 0.555744 0.614732 0.559691
vn 0.452340 0.531383 -0.716255
vn 0.587396 0.622890 -0.516695
vn 0.214461 0.635664 -0.741578
vn -0.501744 -0.393754 0.770202
vn -0.252611 0.628936 -0.735273
vn -0.316490 -0.602665 -0.732550
vn -0.465659 -0.012980 0.884869
vn -0.576264 -0.235273 0.782666
vn 0.040758 0.595209 0.802537
vn -0.491888 0.300416 -0.817188
vn -0.484470 0.449284 -0.750621
vn 0.782821 -0.508739 -0.358296
vn 0.861619 -0.493439 0.118873
vn 0.594394 -0.619953 -0.512205
vn -0.226750 0.409965 0.883466
vn -0.516824 -0.270275 -0.812308
vn -0.530189 -0.343072 -0.775372
vn 0.736431 -0.590207 0.330643
vn 0.788998 -0.604324 -0.110790
vn 0.536637 -0.841664 -0.060190
vn -0.244298 0.816069 -0.523785
vn 0.455073 -0.862409 0.221720
vn -0.036876 0.805531 0.591405
vn -0.347989 -0.776799 -0.524869
vn 0.406646 0.827024 0.388163
vn 0.190204 0.905599 0.379096
vn 0.561560 0.827394 -0.008375
vn 0.371381 -0.880685 -0.294058
vn -0.406776 0.402319 0.820167
vn -0.536931 0.286408 0.793521
vn -0.156211 -0.755359 0.636420
vn -0.558121 -0.570735 0.602297
vn -0.407143 -0.743447 0.530586
vn 0.103085 -0.866987 -0.487552
vn -0.144334 -0.888956 -0.434656
vn 0.282149 -0.907123 -0.312282
vn 0.272010 -0.811365 0.517394
vn 0.421539 -0.873671 0.242907
vn -0.780359 -0.478150 0.403004
vn -0.783765 -0.129709 0.607361
vn -0.853625 -0.290200 0.432561
vn -0.568970 -0.740711 -0.357240
vn -0.686553 0.061977 -0.724434
vn -0.686058 0.531236 -0.497105
vn 0.147086 0.830410 -0.537386
vn 0.430679 0.832266 -0.349067
vn -0.022865 0.894998 -0.445484
vn 0.420727 0.894925 -0.148652
vn -0.792189 -0.438033 -0.424928
vn 0.029421 -0.856411 0.515456
vn -0.541465 0.801396 -0.254128
vn 0.143471 0.985843 -0.086774
vn 0.084125 0.980223 0.179125
vn 0.022454 0.980245 -0.196508
vn 0.135251 -0.986740 0.089734
vn 0.098008 -0.994532 -0.036058
vn -0.057804 -0.953831 0.294727
vn -0.810621 0.076437 -0.580561
vn -0.849811 0.333211 -0.408401
vn -0.903373 -0.311375 -0.294894
vn -0.309498 0.812438 0.494121
vn -0.786665 0.246005 0.566251
vn -0.426864 0.706143 0.564932
vn -0.439769 -0.892416 0.100984
vn -0.776111 -0.617415 0.128260
vn -0.361049 0.914659 0.181775
vn -0.936212 -0.294064 -0.192439
vn -0.520354 -0.852204 0.054590
vn -0.999267 -0.012136 0.036305
vn -0.709467 0.582757 0.396296
vn -0.353706 0.915520 0.191613
vn -0.719100 0.670615 0.182129
vn -0.358003 0.931981 -0.056972
vn -0.529639 0.779454 -0.334566
vn -0.786638 0.616952 0.023874
vn -0.953413 0.296164 -0.057361
vn -0.801597 0.262712 0.537052
vn -0.202625 -0.973497 -0.106047
vn -0.456445 -0.883598 0.104466
vn -0.990988 0.120669 0.058146
f 1//1 3//1 8//1
f 3//2 4//2 9//2
f 3//3 9//3 8//3
f 4//4 5//4 10//4
f 4//5 10//5 9//5
f 5//6 6//6 11//6
f 5//7 11//7 10//7
f 6//8 7//8 12//8
f 6//9 12//9 11//9
f 7//10 2//10 13//10
f 7//11 13//11 12//11
f 3//12 1//12 14//12
f 4//13 3//13 15//13
f 3//14 14//14 15//14
f 5//15 4//15 16//15
f 4//16 15//16 16//16
f 6//17 5//17 17//17
f 5//18 16//18 17//18
f 7//19 6//19 18//19
f 6//20 17//20 18//20
f 2//21 7//21 19//21
f 7//22 18//22 19//22
f 13//23 2//23 20//23
f 14//24 1//24 21//24
f 2//25 19//25 22//25
f 2//26 22//26 20//26
f 1//27 8//27 23//27
f 21//28 1//28 24//28
f 1//29 23//29 24//29
f 8//30 9//30 25//30
f 11//31 12//31 26//31
f 12//32 13//32 27//32
f 12//33 27//33 26//33
f 13//34 20//34 28//34
f 13//35 28//35 27//35
f 14//36 21//36 29//36
f 23//37 8//37 30//37
f 8//38 25//38 30//38
f 16//39 15//39 31//39
f 17//40 16//40 32//40
f 16//41 31//41 32//41
f 18//42 17//42 32//42
f 19//43 18//43 33//43
f 18//44 32//44 33//44
f 15//45 14//45 34//45
f 31//46 15//46 34//46
f 14//47 29//47 34//47
f 28//48 20//48 35//48
f 29//49 21//49 36//49
f 23//50 30//50 37//50
f 20//51 22//51 38//51
f 20//52 38//52 35//52
f 19//53 33//53 39//53
f 21//54 24//54 40//54
f 21//55 40//55 36//55
f 9//56 10//56 41//56
f 10//57 11//57 42//57
f 9//58 41//58 25//58
f 22//59 19//59 39//59
f 24//60 23//60 43//60
f 23//61 37//61 43//61
f 42//62 11//62 26//62
f 41//63 10//63 42//63
f 41//64 42//64 44//64
f 29//65 36//65 45//65
f 42//66 26//66 44//66
f 39//67 33//67 46//67
f 37//68 30//68 47//68
f 33//69 32//69 48//69
f 46//70 33//70 48//70
f 32//71 31//71 48//71
f 25//72 41//72 44//72
f 22//73 39//73 49//73
f 22//74 49//74 38//74
f 27//75 28//75 50//75
f 28//76 35//76 51//76
f 28//77 51//77 50//77
f 30//78 25//78 52//78
f 47//79 30//79 52//79
f 25//80 44//80 52//80
f 26//81 27//81 53//81
f 44//82 26//82 53//82
f 51//83 35//83 54//83
f 35//84 38//84 55//84
f 35//85 55//85 54//85
f 37//86 47//86 56//86
f 24//87 43//87 40//87
f 36//88 40//88 57//88
f 34//89 29//89 58//89
f 31//90 34//90 58//90
f 29//91 45//91 58//91
f 48//92 31//92 58//92
f 43//93 37//93 56//93
f 53//94 27//94 50//94
f 36//95 57//95 45//95
f 48//96 58//96 59//96
f 46//97 48//97 59//97
f 58//98 45//98 59//98
f 44//99 53//99 60//99
f 52//100 44//100 60//100
f 53//101 50//101 60//101
f 40//102 43//102 61//102
f 40//103 61//103 57//103
f 43//104 56//104 61//104
f 39//105 46//105 62//105
f 38//106 49//106 55//106
f 49//107 39//107 62//107
f 50//108 51//108 47//108
f 51//109 54//109 56//109
f 62//110 46//110 59//110
f 56//111 54//111 61//111
f 47//112 51//112 56//112
f 54//113 55//113 61//113
f 49//114 62//114 63//114
f 62//115 59//115 64//115
f 63//116 62//116 64//116
f 59//117 45//117 64//117
f 45//118 57//118 64//118
f 64//119 57//119 63//119
f 63//120 57//120 61//120
f 55//121 49//121 63//121
f 47//122 52//122 60//122
f 50//123 47//123 60//123
f 63//124 61//124 55//124
