# Created by FreeCAD <http://www.freecadweb.org>
v 0.000000 10.009597 0.000000 204 204 204
v 9.962584 10.009597 0.000000 204 204 204
v 9.962584 0.000000 0.000000 204 204 204
v 0.000000 0.000000 0.000000 204 204 204
v 3.285660 0.000000 0.000000 204 204 204
v 6.775553 0.000000 0.000000 204 204 204
v 9.962584 3.341203 0.000000 204 204 204
v 9.962584 6.642369 0.000000 204 204 204
v 6.816400 10.009597 0.000000 204 204 204
v 3.145188 10.009597 0.000000 204 204 204
v 0.000000 6.597325 0.000000 204 204 204
v 0.000000 3.243109 0.000000 204 204 204
v 5.030607 3.268352 0.000000 204 204 204
v 7.073147 4.991786 0.000000 204 204 204
v 4.980794 6.220444 0.000000 204 204 204
v 3.457810 4.920218 0.000000 204 204 204
vn 0.000000 0.000000 1.000000
vn 0.000000 0.000000 1.000000
vn 0.000000 0.000000 1.000000
vn 0.000000 -0.000000 1.000000
vn 0.000000 -0.000000 1.000000
vn 0.000000 0.000000 1.000000
vn 0.000000 0.000000 1.000000
vn 0.000000 0.000000 1.000000
vn 0.000000 -0.000000 1.000000
vn 0.000000 0.000000 1.000000
vn 0.000000 0.000000 1.000000
vn -0.000000 0.000000 1.000000
vn 0.000000 0.000000 1.000000
vn 0.000000 0.000000 1.000000
vn 0.000000 0.000000 1.000000
vn 0.000000 0.000000 1.000000
vn -0.000000 0.000000 1.000000
vn 0.000000 0.000000 1.000000
f 4//1 5//1 12//1
f 5//2 6//2 13//2
f 6//3 3//3 7//3
f 7//4 8//4 14//4
f 8//5 2//5 9//5
f 9//6 10//6 15//6
f 10//7 1//7 11//7
f 11//8 12//8 16//8
f 6//9 7//9 13//9
f 8//10 9//10 15//10
f 10//11 11//11 15//11
f 12//12 5//12 16//12
f 8//13 15//13 14//13
f 7//14 14//14 13//14
f 16//15 5//15 13//15
f 14//16 15//16 13//16
f 16//17 13//17 15//17
f 15//18 11//18 16//18
